<?xml version="1.0" encoding="utf-8"?>
<!-- Generator: Adobe Illustrator 16.0.0, SVG Export Plug-In . SVG Version: 6.00 Build 0)  -->
<!DOCTYPE svg PUBLIC "-//W3C//DTD SVG 1.1//EN" "http://www.w3.org/Graphics/SVG/1.1/DTD/svg11.dtd">
<svg version="1.1" xmlns="http://www.w3.org/2000/svg" xmlns:xlink="http://www.w3.org/1999/xlink" x="0px" y="0px" width="30px"
	 height="60px" viewBox="0 0 30 60" enable-background="new 0 0 30 60" xml:space="preserve">
<g id="Layer_1">
	<g>
		<rect display="none" fill="#FF0000" width="30" height="30"/>
		<path fill="#27272E" d="M9.75,15.5h4v4c0,0.553,0.447,1,1,1c0.552,0,1-0.447,1-1v-4h4c0.552,0,1-0.447,1-1s-0.448-1-1-1h-4v-4
			c0-0.553-0.448-1-1-1c-0.553,0-1,0.447-1,1v4h-4c-0.553,0-1,0.447-1,1S9.197,15.5,9.75,15.5z"/>
	</g>
</g>
<g id="Layer_1_copy">
	<g>
		<rect y="30" display="none" fill="#00FFCE" width="30" height="30"/>
		<g>
			<g>
				<path fill="#27272E" d="M19.75,44.25h-10c-0.553,0-1,0.447-1,1s0.447,1,1,1h10c0.552,0,1-0.447,1-1S20.302,44.25,19.75,44.25z"
					/>
			</g>
		</g>
	</g>
</g>
</svg>
