<?xml version="1.0" encoding="utf-8"?>
<!-- Generator: Adobe Illustrator 16.0.0, SVG Export Plug-In . SVG Version: 6.00 Build 0)  -->
<!DOCTYPE svg PUBLIC "-//W3C//DTD SVG 1.0//EN" "http://www.w3.org/TR/2001/REC-SVG-20010904/DTD/svg10.dtd">
<svg version="1.0" id="Layer_1" xmlns="http://www.w3.org/2000/svg" xmlns:xlink="http://www.w3.org/1999/xlink" x="0px" y="0px"
	 width="180px" height="50px" viewBox="0 0 180 50" enable-background="new 0 0 180 50" xml:space="preserve">
<g>
	<g>
		<path fill="#82B600" d="M179.002,17c0,8.838-7.164,16-16.002,16h-9c-8.838,0-16.002-7.162-16.002-16l0,0
			c0-8.838,6.822-16,16.002-16h9.342C171.838,1,179.002,8.162,179.002,17L179.002,17z"/>
		<g>
			<path fill="#FFFFFF" d="M162.283,24.486C161.23,24.813,159.685,25,158.4,25c-4.657,0-8.235-3.485-8.235-8.046
				c0-4.585,3.464-7.954,8.164-7.954c1.101,0,2.387,0.139,3.204,0.35c0.68,0.188,1.031,0.352,1.876,0.82l-0.729,1.59
				c-0.375-0.211-0.631-0.328-0.818-0.421c-0.89-0.374-2.105-0.608-3.346-0.608c-2.178,0-3.579,0.584-4.773,1.965
				c-0.957,1.123-1.519,2.598-1.519,4.117c0,3.72,2.854,6.457,6.714,6.457c0.771,0,1.312-0.07,2.55-0.327v-5.147h1.921v6.316
				C162.914,24.299,162.539,24.416,162.283,24.486z"/>
		</g>
	</g>
	<g>
		<path fill="#7D7B7C" d="M12.021,41.959c-0.024,3.82-1.488,6.152-5.681,6.152c-2.556,0-5.087-1.142-5.31-3.871h1.562
			c0.349,1.886,2.01,2.557,3.747,2.557c2.877,0,4.118-1.713,4.118-4.838v-1.736h-0.05c-0.72,1.562-2.233,2.629-4.068,2.629
			c-4.094,0-5.78-2.928-5.78-6.574c0-3.523,2.083-6.449,5.78-6.449c1.86,0,3.447,1.166,4.068,2.58h0.05v-2.209h1.562V41.959z
			 M10.459,36.451c0-2.506-1.166-5.309-4.118-5.309c-2.978,0-4.218,2.654-4.218,5.309c0,2.58,1.341,5.086,4.218,5.086
			C9.045,41.537,10.459,39.057,10.459,36.451z"/>
		<path fill="#7D7B7C" d="M15.743,37.021c0.025,2.283,1.217,5.037,4.218,5.037c2.282,0,3.523-1.34,4.018-3.275h1.564
			c-0.67,2.902-2.356,4.59-5.582,4.59c-4.068,0-5.78-3.126-5.78-6.773c0-3.373,1.712-6.771,5.78-6.771
			c4.118,0,5.756,3.596,5.631,7.193H15.743z M24.029,35.707c-0.073-2.357-1.538-4.564-4.068-4.564c-2.556,0-3.969,2.232-4.218,4.564
			H24.029z"/>
		<path fill="#7D7B7C" d="M39.684,36.6c0,3.672-2.133,6.773-6.052,6.773c-3.921,0-6.054-3.102-6.054-6.773
			c0-3.67,2.133-6.771,6.054-6.771C37.551,29.828,39.684,32.93,39.684,36.6z M29.141,36.6c0,2.729,1.488,5.459,4.491,5.459
			c3.001,0,4.489-2.729,4.489-5.459c0-2.729-1.488-5.457-4.489-5.457C30.629,31.143,29.141,33.871,29.141,36.6z"/>
		<path fill="#7D7B7C" d="M53.106,41.959c-0.025,3.82-1.488,6.152-5.681,6.152c-2.556,0-5.087-1.142-5.31-3.871h1.562
			c0.348,1.886,2.009,2.557,3.747,2.557c2.877,0,4.117-1.713,4.117-4.838v-1.736h-0.05c-0.719,1.562-2.232,2.629-4.067,2.629
			c-4.093,0-5.781-2.928-5.781-6.574c0-3.523,2.084-6.449,5.781-6.449c1.86,0,3.448,1.166,4.067,2.58h0.05v-2.209h1.563V41.959z
			 M51.543,36.451c0-2.506-1.166-5.309-4.117-5.309c-2.978,0-4.219,2.654-4.219,5.309c0,2.58,1.34,5.086,4.219,5.086
			C50.129,41.537,51.543,39.057,51.543,36.451z"/>
		<path fill="#7D7B7C" d="M56.232,30.199h1.439v3.002h0.049c0.794-2.059,2.53-3.274,4.837-3.175v1.563
			c-2.828-0.15-4.763,1.935-4.763,4.589V43h-1.562V30.199z"/>
		<path fill="#7D7B7C" d="M64.147,34.119c0.148-3.002,2.256-4.291,5.184-4.291c2.257,0,4.713,0.694,4.713,4.117v6.798
			c0,0.595,0.299,0.942,0.918,0.942c0.174,0,0.373-0.049,0.496-0.099v1.314C75.112,42.977,74.863,43,74.441,43
			c-1.588,0-1.836-0.893-1.836-2.232h-0.049c-1.092,1.662-2.208,2.605-4.665,2.605c-2.355,0-4.29-1.166-4.29-3.746
			c0-3.598,3.497-3.721,6.87-4.118c1.292-0.148,2.01-0.323,2.01-1.737c0-2.108-1.513-2.629-3.35-2.629
			c-1.934,0-3.374,0.893-3.423,2.977H64.147z M72.481,36.005h-0.049c-0.199,0.372-0.894,0.496-1.315,0.57
			c-2.654,0.472-5.953,0.446-5.953,2.953c0,1.562,1.389,2.53,2.853,2.53c2.382,0,4.49-1.514,4.465-4.02V36.005z"/>
		<path fill="#7D7B7C" d="M77.296,30.199h1.438v2.432h0.05c0.719-1.736,2.506-2.803,4.564-2.803c3.895,0,5.755,3.15,5.755,6.771
			c0,3.623-1.86,6.773-5.755,6.773c-1.91,0-3.771-0.969-4.44-2.803h-0.05v7.168h-1.562V30.199z M83.349,31.143
			c-3.448,0-4.49,2.555-4.49,5.457c0,2.655,1.165,5.459,4.49,5.459c2.977,0,4.192-2.804,4.192-5.459
			C87.541,33.945,86.325,31.143,83.349,31.143z"/>
		<path fill="#7D7B7C" d="M91.263,25.288h1.563v7.12h0.05c0.569-1.539,2.282-2.58,4.093-2.58c3.597,0,4.688,1.885,4.688,4.936V43
			h-1.562v-7.987c0-2.208-0.719-3.87-3.25-3.87c-2.48,0-3.968,1.886-4.018,4.391V43h-1.563V25.288z"/>
		<path fill="#7D7B7C" d="M104.784,25.288h1.562v2.505h-1.562V25.288z M104.784,30.199h1.562V43h-1.562V30.199z"/>
		<path fill="#7D7B7C" d="M118.206,34.219c-0.423-1.91-1.589-3.076-3.623-3.076c-3.002,0-4.491,2.729-4.491,5.457
			c0,2.729,1.489,5.459,4.491,5.459c1.935,0,3.522-1.514,3.722-3.647h1.562c-0.422,3.076-2.431,4.962-5.284,4.962
			c-3.92,0-6.054-3.102-6.054-6.773c0-3.67,2.134-6.771,6.054-6.771c2.729,0,4.837,1.463,5.185,4.391H118.206z"/>
		<path fill="#7D7B7C" d="M122.176,34.119c0.147-3.002,2.256-4.291,5.185-4.291c2.257,0,4.713,0.694,4.713,4.117v6.798
			c0,0.595,0.298,0.942,0.917,0.942c0.175,0,0.373-0.049,0.497-0.099v1.314C133.14,42.977,132.892,43,132.47,43
			c-1.588,0-1.834-0.893-1.834-2.232h-0.051c-1.091,1.662-2.209,2.605-4.664,2.605c-2.356,0-4.292-1.166-4.292-3.746
			c0-3.598,3.498-3.721,6.872-4.118c1.29-0.148,2.01-0.323,2.01-1.737c0-2.108-1.514-2.629-3.35-2.629
			c-1.935,0-3.373,0.893-3.423,2.977H122.176z M130.511,36.005h-0.05c-0.198,0.372-0.894,0.496-1.315,0.57
			c-2.654,0.472-5.953,0.446-5.953,2.953c0,1.562,1.39,2.53,2.852,2.53c2.383,0,4.491-1.514,4.467-4.02V36.005z"/>
	</g>
</g>
<g>
	<path fill="#464548" d="M4.046,1.003h1.176L8.347,9H7.171L6.297,6.592H2.915L2.019,9H0.921L4.046,1.003z M3.251,5.696h2.71
		L4.629,1.967H4.606L3.251,5.696z"/>
	<path fill="#464548" d="M12.122,3.21h0.952v0.783h0.022c0.314-0.638,1.053-0.918,1.848-0.918c1.781,0,2.666,1.411,2.666,3.047
		c0,1.635-0.874,3.013-2.643,3.013c-0.594,0-1.445-0.225-1.871-0.907h-0.022v2.99h-0.952V3.21z M14.81,3.915
		c-1.277,0-1.77,1.098-1.77,2.185c0,1.142,0.515,2.194,1.825,2.194c1.299,0,1.736-1.108,1.736-2.239
		C16.602,4.968,16.042,3.915,14.81,3.915z"/>
	<path fill="#464548" d="M18.696,3.21h0.896v1.221h0.022c0.459-0.93,1.098-1.389,2.128-1.355v1.008
		c-1.534,0-2.094,0.874-2.094,2.341V9h-0.952V3.21z"/>
	<path fill="#464548" d="M24.755,3.075c1.837,0,2.811,1.333,2.811,3.035c0,1.691-0.974,3.024-2.811,3.024s-2.811-1.333-2.811-3.024
		C21.944,4.408,22.918,3.075,24.755,3.075z M24.755,8.294c0.997,0,1.803-0.783,1.803-2.184c0-1.411-0.806-2.195-1.803-2.195
		c-0.997,0-1.803,0.784-1.803,2.195C22.952,7.511,23.758,8.294,24.755,8.294z"/>
	<path fill="#464548" d="M29.694,9.739c0,1.03-0.549,1.479-1.389,1.479c-0.157,0-0.325-0.012-0.493-0.045v-0.817
		c0.134,0.022,0.257,0.022,0.392,0.022c0.414,0,0.538-0.202,0.538-0.796V3.21h0.952V9.739z M29.694,2.168h-0.952V1.003h0.952V2.168z
		"/>
	<path fill="#464548" d="M36.111,7.163c-0.257,1.277-1.176,1.972-2.475,1.972c-1.848,0-2.722-1.277-2.777-3.047
		c0-1.736,1.142-3.013,2.722-3.013c2.049,0,2.677,1.915,2.621,3.315h-4.334c-0.034,1.008,0.538,1.903,1.803,1.903
		c0.784,0,1.333-0.38,1.501-1.131H36.111z M35.193,5.551c-0.045-0.907-0.728-1.636-1.669-1.636c-0.997,0-1.59,0.751-1.658,1.636
		H35.193z"/>
	<path fill="#464548" d="M41.118,5.068c-0.146-0.728-0.649-1.153-1.434-1.153c-1.377,0-1.803,1.087-1.803,2.263
		c0,1.063,0.481,2.116,1.691,2.116c0.918,0,1.467-0.537,1.59-1.411h0.974c-0.212,1.411-1.098,2.252-2.553,2.252
		c-1.77,0-2.71-1.232-2.71-2.957c0-1.736,0.896-3.103,2.732-3.103c1.311,0,2.363,0.616,2.498,1.993H41.118z"/>
	<path fill="#464548" d="M44.522,3.21h1.153v0.84h-1.153v3.595c0,0.438,0.123,0.516,0.717,0.516h0.437V9h-0.728
		c-0.986,0-1.378-0.201-1.378-1.266V4.05h-0.986V3.21h0.986V1.474h0.952V3.21z"/>
	<path fill="#464548" d="M49.875,1.003h0.952v2.99h0.022c0.313-0.638,1.053-0.918,1.849-0.918c1.78,0,2.665,1.411,2.665,3.047
		c0,1.635-0.873,3.013-2.644,3.013c-0.593,0-1.444-0.225-1.87-0.907h-0.022V9h-0.952V1.003z M52.563,3.915
		c-1.277,0-1.77,1.098-1.77,2.185c0,1.142,0.515,2.194,1.825,2.194c1.3,0,1.736-1.108,1.736-2.239
		C54.355,4.968,53.795,3.915,52.563,3.915z"/>
	<path fill="#464548" d="M58.757,9.772c-0.437,1.132-0.829,1.546-1.68,1.546c-0.225,0-0.448-0.022-0.661-0.101v-0.874
		c0.18,0.057,0.37,0.135,0.561,0.135c0.392,0,0.604-0.19,0.783-0.526l0.393-0.985L55.856,3.21h1.075l1.691,4.737h0.021l1.624-4.737
		h1.009L58.757,9.772z"/>
</g>
</svg>
