<?xml version="1.0" encoding="utf-8"?>
<!-- Generator: Adobe Illustrator 16.0.0, SVG Export Plug-In . SVG Version: 6.00 Build 0)  -->
<!DOCTYPE svg PUBLIC "-//W3C//DTD SVG 1.0//EN" "http://www.w3.org/TR/2001/REC-SVG-20010904/DTD/svg10.dtd">
<svg version="1.0" id="Layer_1" xmlns="http://www.w3.org/2000/svg" xmlns:xlink="http://www.w3.org/1999/xlink" x="0px" y="0px"
	 width="34px" height="34px" viewBox="-1 -1 34 34" enable-background="new -1 -1 34 34" xml:space="preserve">
<g>
	<path fill="#FFB400" d="M23.424,11.255c0.076,0.123,0.152,0.252,0.234,0.416c0.207,0.413,0.367,0.781,0.513,1.113
		c0.597,1.36,1.111,2.534,3.158,3.558l3.342,1.672L32,16l-3.329-2.342c-1.075-0.538-1.233-0.895-1.752-2.079
		c-0.164-0.374-0.346-0.787-0.577-1.25C25.029,7.704,24,7,23,7c-0.549,0-0.486,0-1,0c-0.6,0-1.167-0.076-1.902,0.049L20,7
		l-0.014,0.066c-0.467,0.09-1.002,0.265-1.657,0.592c-2.155,1.078-3.27,2.161-3.39,2.281l-3.02,4.477l0.99,0.754l-3.775,5.904
		c-0.103-0.133-0.224-0.254-0.372-0.348l-0.421-0.271l0.27-0.422c0.149-0.232,0.081-0.541-0.152-0.688
		c-0.232-0.148-0.541-0.082-0.69,0.149l-0.27,0.422l-0.421-0.271c-0.696-0.444-1.626-0.239-2.071,0.457L1.236,26
		c-0.445,0.697-0.24,1.627,0.456,2.072l0.499,0.318c-0.139,0.602,0.099,1.25,0.647,1.602c0.696,0.445,1.626,0.24,2.071-0.455
		l0.539-0.844l3.771-5.896l4.489-7.021L14,16l3.148-4.02c0.246-0.218,0.996-0.819,2.187-1.455l-0.745,3.951
		c-0.508,1.162-0.74,3.495,1.35,5.584l2.828,2.828l3.562,8.123l2.684-1.342l-3.779-8.561L23,18
		c-1.131-1.131-0.784-2.115-0.719-2.269L23.424,11.255z M4.067,29c-0.148,0.232-0.459,0.301-0.691,0.152
		c-0.231-0.148-0.301-0.459-0.151-0.691c0.148-0.232,0.458-0.301,0.69-0.152C4.147,28.458,4.216,28.768,4.067,29z M8.376,22.26
		l-3.551,5.555c-0.102-0.133-0.223-0.254-0.371-0.348c-0.549-0.352-1.238-0.293-1.726,0.084l-0.499-0.318
		c-0.231-0.147-0.3-0.459-0.151-0.69l3.771-5.897c0.148-0.232,0.459-0.299,0.691-0.15l1.685,1.076
		C8.456,21.717,8.525,22.027,8.376,22.26z"/>
	<path fill="#FFB400" d="M17.467,20.182l-0.841,3.15L12.9,29.3l2.399,1.8l4.074-6.432l0.493-1.852l-1.343-1.342
		C18.105,21.055,17.759,20.621,17.467,20.182z"/>
	<circle fill="#FFB400" cx="23.5" cy="3.5" r="2.5"/>
</g>
</svg>
