<?xml version="1.0" encoding="utf-8"?>
<!-- Generator: Adobe Illustrator 16.0.0, SVG Export Plug-In . SVG Version: 6.00 Build 0)  -->
<!DOCTYPE svg PUBLIC "-//W3C//DTD SVG 1.1//EN" "http://www.w3.org/Graphics/SVG/1.1/DTD/svg11.dtd">
<svg version="1.1" id="Layer_1" xmlns="http://www.w3.org/2000/svg" xmlns:xlink="http://www.w3.org/1999/xlink" x="0px" y="0px"
	 width="20px" height="19.727px" viewBox="0 0 20 19.727" enable-background="new 0 0 20 19.727" xml:space="preserve">
<g>
	<path fill="#848484" d="M0.658,17.884l0.778,1.843C4.148,18.581,7.029,18,10,18s5.852,0.581,8.564,1.727l0.777-1.843
		C16.471,16.671,13.314,16,10,16C6.686,16,3.529,16.671,0.658,17.884z M3,6c1.657,0,3-1.344,3-3S4.657,0,3,0S0,1.344,0,3
		S1.343,6,3,6z M17,0c-1.656,0-3,1.344-3,3s1.344,3,3,3s3-1.344,3-3S18.656,0,17,0z"/>
</g>
</svg>
