<?xml version="1.0" encoding="utf-8"?>
<!-- Generator: Adobe Illustrator 16.0.0, SVG Export Plug-In . SVG Version: 6.00 Build 0)  -->
<!DOCTYPE svg PUBLIC "-//W3C//DTD SVG 1.0//EN" "http://www.w3.org/TR/2001/REC-SVG-20010904/DTD/svg10.dtd">
<svg version="1.0" id="Layer_1" xmlns="http://www.w3.org/2000/svg" xmlns:xlink="http://www.w3.org/1999/xlink" x="0px" y="0px"
	 width="18px" height="18px" viewBox="0 0 18 18" enable-background="new 0 0 18 18" xml:space="preserve">
<g>
	<g>
		<path fill="#FFB400" d="M9,1C4.582,1,1,4.582,1,9s3.582,8,8,8s8-3.582,8-8S13.418,1,9,1z M9,3.25c0.76,0,1.375,0.615,1.375,1.375
			S9.76,6,9,6S7.625,5.385,7.625,4.625S8.24,3.25,9,3.25z M11,14h-1H8H7v-1h1V8H7V7h1h2v1v5h1V14z"/>
	</g>
</g>
</svg>
