<?xml version="1.0" encoding="utf-8"?>
<!-- Generator: Adobe Illustrator 16.0.0, SVG Export Plug-In . SVG Version: 6.00 Build 0)  -->
<!DOCTYPE svg PUBLIC "-//W3C//DTD SVG 1.0//EN" "http://www.w3.org/TR/2001/REC-SVG-20010904/DTD/svg10.dtd">
<svg version="1.0" id="Layer_1" xmlns="http://www.w3.org/2000/svg" xmlns:xlink="http://www.w3.org/1999/xlink" x="0px" y="0px"
	 width="34px" height="34px" viewBox="-1 -1 34 34" enable-background="new -1 -1 34 34" xml:space="preserve">
<g>
	<g>
		<path d="M1162.498,504.998L1156,505l-6.501-7H1148l3.266,6.997l-4.267,0.001l-1.499-2h-1.5l1,5l17.498,0.002
			c0.831,0,1.502-0.671,1.502-1.5C1164,505.67,1163.326,504.998,1162.498,504.998z"/>
	</g>
	<g>
		<circle cx="1140" cy="515.5" r="1"/>
		<path d="M1140,515c0.276,0,0.5,0.224,0.5,0.5s-0.224,0.5-0.5,0.5s-0.5-0.224-0.5-0.5S1139.724,515,1140,515 M1140,514
			c-0.827,0-1.5,0.673-1.5,1.5s0.673,1.5,1.5,1.5s1.5-0.673,1.5-1.5S1140.827,514,1140,514L1140,514z"/>
	</g>
	<g>
		<path d="M1168,515c0.276,0,0.5,0.224,0.5,0.5s-0.224,0.5-0.5,0.5s-0.5-0.224-0.5-0.5S1167.724,515,1168,515 M1168,514
			c-0.827,0-1.5,0.673-1.5,1.5s0.673,1.5,1.5,1.5s1.5-0.673,1.5-1.5S1168.827,514,1168,514L1168,514z"/>
	</g>
	<g>
		<path d="M1164.246,508.284c-0.264,0.258-0.587,0.449-0.943,0.571c2.58,1.549,4.197,3.729,4.197,6.145h1
			C1168.5,512.38,1166.873,510.004,1164.246,508.284z"/>
		<path d="M1144.181,508.998l-0.173-0.865c-2.771,1.732-4.508,4.167-4.508,6.867h1c0-2.341,1.511-4.463,3.95-6.002H1144.181z"/>
	</g>
</g>
<g>
	<path fill="#FFB400" d="M30.356,16.1l-18.84,5.05l-6.76,1.811l-4.97-6.95l1.94-0.52l3.67,2.12l7.729-2.07L7.446,9.82l2.9-0.78
		l10.51,4.43l8.211-2.2c1.33-0.36,2.699,0.44,3.059,1.77C32.487,14.37,31.687,15.74,30.356,16.1z"/>
</g>
</svg>
