<?xml version="1.0" encoding="utf-8"?>
<!-- Generator: Adobe Illustrator 16.0.0, SVG Export Plug-In . SVG Version: 6.00 Build 0)  -->
<!DOCTYPE svg PUBLIC "-//W3C//DTD SVG 1.0//EN" "http://www.w3.org/TR/2001/REC-SVG-20010904/DTD/svg10.dtd">
<svg version="1.0" id="Layer_1" xmlns="http://www.w3.org/2000/svg" xmlns:xlink="http://www.w3.org/1999/xlink" x="0px" y="0px"
	 width="16px" height="32px" viewBox="-1 -2 16 32" enable-background="new -1 -2 16 32" xml:space="preserve">
<path fill="#0E0E0E" d="M8.5-1h-3v2H3.586L1.783,2.803L2.382,4h-1l-1.599,3.197L4,11.414V29h6V11.414l4.217-4.217L12.618,4h-1
	l0.599-1.197L10.414,1H8.5V-1L8.5-1z"/>
<g>
	<g>
		<path fill="#FFB400" d="M2,5L1,7l4,4v17l0,0h4V11l4-4l-1-2h-2l1-2l0,0l0,0l0,0l-1-1H7.5V0h-1v2H4L3,3l0,0l0,0l0,0l1,2H2z M7.5,3.5
			h2L8.883,5H7.5V3.5z M6.5,3.5V5H5.118L4.5,3.5H6.5z"/>
	</g>
</g>
</svg>
