<?xml version="1.0" encoding="utf-8"?>
<!-- Generator: Adobe Illustrator 16.0.0, SVG Export Plug-In . SVG Version: 6.00 Build 0)  -->
<!DOCTYPE svg PUBLIC "-//W3C//DTD SVG 1.0//EN" "http://www.w3.org/TR/2001/REC-SVG-20010904/DTD/svg10.dtd">
<svg version="1.0" id="Layer_1" xmlns="http://www.w3.org/2000/svg" xmlns:xlink="http://www.w3.org/1999/xlink" x="0px" y="0px"
	 width="16px" height="32px" viewBox="-1 -2 16 32" enable-background="new -1 -2 16 32" xml:space="preserve">
<path fill="#0E0E0E" d="M8.5-1h-3v2H3.586L1.783,2.803L2.382,4h-1l-1.599,3.197L4,11.414V29h6V11.414l4.217-4.217L12.618,4h-1
	l0.599-1.197L10.414,1H8.5V-1L8.5-1z"/>
<g>
	<path fill="#82B600" d="M4.5,28.5V11.207L0.392,7.099L1.691,4.5h1.5L2.392,2.901L3.793,1.5H6v-2h2v2h2.207l1.401,1.401l-0.8,1.599
		h1.5l1.3,2.599L9.5,11.207V28.5H4.5z M8.548,4.5L8.754,4H8v0.5H8.548z M6,4.5V4H5.247l0.206,0.5H6z"/>
	<path fill="#0E0E0E" d="M7.5,0v2H10l1,1l-1,2h2l1,2l-4,4v17H5V11L1,7l1-2h2L3,3l1-1h2.5V0H7.5 M7.5,5h1.383L9.5,3.5h-2V5 M5.118,5
		H6.5V3.5h-2L5.118,5 M8.5-1h-1h-1h-1v1v1H4H3.586L3.293,1.293l-1,1l-0.51,0.51l0.322,0.645L2.382,4H2H1.382L1.105,4.553l-1,2
		l-0.322,0.645l0.51,0.51L4,11.414V28v1h1h4h1v-1V11.414l3.707-3.707l0.51-0.51l-0.322-0.645l-1-2L12.618,4H12h-0.382l0.276-0.553
		l0.322-0.645l-0.51-0.51l-1-1L10.414,1H10H8.5V0V-1L8.5-1z"/>
</g>
</svg>
