<?xml version="1.0" encoding="utf-8"?>
<!-- Generator: Adobe Illustrator 16.0.0, SVG Export Plug-In . SVG Version: 6.00 Build 0)  -->
<!DOCTYPE svg PUBLIC "-//W3C//DTD SVG 1.0//EN" "http://www.w3.org/TR/2001/REC-SVG-20010904/DTD/svg10.dtd">
<svg version="1.0" id="Layer_1" xmlns="http://www.w3.org/2000/svg" xmlns:xlink="http://www.w3.org/1999/xlink" x="0px" y="0px"
	 width="50px" height="50px" viewBox="0 0 50 50" enable-background="new 0 0 50 50" xml:space="preserve">
<path fill="#FFB400" d="M26,1c-0.005,0-0.01,0-0.015,0c-0.001,0-0.002,0-0.002,0c-0.005,0-0.01,0-0.015,0c-0.001,0-0.002,0-0.002,0
	c-0.005,0-0.01,0-0.014,0c-0.001,0-0.001,0-0.001,0c-0.005,0-0.01,0-0.015,0c-0.001,0-0.002,0-0.003,0c-0.005,0-0.009,0-0.014,0
	h-0.002c-0.004,0-0.009,0-0.013,0c-0.001,0-0.002,0-0.003,0c-0.004,0-0.009,0-0.014,0c-0.001,0-0.001,0-0.003,0
	c-0.004,0-0.009,0-0.014,0c-0.001,0-0.001,0-0.002,0c-0.004,0-0.009,0-0.013,0c0,0-0.002,0-0.003,0c-0.004,0-0.009,0-0.014,0
	c0,0-0.002,0-0.003,0c-0.004,0-0.009,0-0.014,0h-0.001c-0.004,0-0.009,0-0.013,0c-0.001,0.001-0.003,0.001-0.004,0.001
	c-0.004,0-0.009,0-0.014,0c0,0-0.002,0-0.003,0c-0.004,0-0.008,0-0.012,0c-0.001,0-0.002,0-0.002,0c-0.005,0-0.01,0-0.014,0
	c-0.002,0-0.002,0-0.004,0c-0.004,0-0.009,0.001-0.013,0.001c-0.002,0-0.002,0-0.004,0c-0.004,0-0.008,0-0.012,0h-0.002
	c-0.005,0-0.01,0-0.014,0c-0.002,0-0.002,0-0.004,0c-0.004,0-0.009,0-0.014,0c0,0-0.001,0-0.002,0c-0.004,0-0.008,0-0.012,0
	c-0.001,0-0.003,0-0.004,0c-0.004,0-0.008,0-0.013,0c-0.001,0-0.003,0-0.004,0c-0.004,0-0.009,0-0.013,0c-0.001,0-0.001,0-0.001,0
	c-0.005,0-0.01,0-0.014,0.001c-0.001,0-0.003,0-0.003,0c-0.005,0-0.009,0-0.014,0c-0.001,0-0.003,0-0.004,0
	c-0.004,0-0.008,0-0.012,0.001c0,0-0.001,0-0.002,0c-0.005,0-0.009,0-0.013,0c-0.002,0-0.003,0-0.005,0c-0.004,0-0.008,0-0.013,0
	c-0.001,0-0.002,0-0.003,0c-0.004,0-0.008,0-0.012,0c-0.001,0-0.001,0-0.003,0c-0.004,0-0.009,0-0.013,0c-0.002,0-0.003,0-0.004,0
	c-0.005,0-0.009,0-0.014,0c-0.001,0-0.001,0.001-0.003,0.001c-0.004,0-0.007,0-0.011,0c-0.002,0-0.002,0-0.004,0
	c-0.004,0-0.009,0.001-0.013,0.001c-0.002,0-0.003,0-0.005,0c-0.004,0-0.008,0-0.012,0h-0.003c-0.004,0-0.008,0-0.012,0
	c0,0-0.003,0-0.004,0c-0.004,0-0.009,0-0.013,0c-0.001,0-0.003,0-0.004,0c-0.004,0-0.007,0-0.011,0.001c-0.002,0-0.003,0-0.005,0
	c-0.004,0-0.008,0-0.011,0c-0.002,0-0.003,0-0.005,0c-0.004,0.001-0.008,0.001-0.013,0.001c-0.001,0-0.002,0-0.004,0
	c-0.004,0-0.007,0-0.011,0c-0.001,0-0.002,0-0.003,0c-0.004,0-0.009,0-0.013,0c-0.002,0-0.003,0-0.005,0
	c-0.004,0-0.008,0-0.013,0.001c-0.001,0-0.002,0-0.003,0c-0.004,0-0.007,0-0.011,0c-0.002,0-0.003,0.001-0.004,0.001
	c-0.004,0-0.009,0-0.013,0c-0.002,0-0.003,0-0.005,0c-0.003,0-0.007,0-0.011,0c-0.002,0-0.004,0-0.005,0c-0.004,0-0.007,0-0.01,0
	c-0.002,0-0.003,0-0.005,0c-0.004,0.001-0.008,0.001-0.012,0.001c-0.003,0-0.003,0-0.006,0c-0.003,0.001-0.006,0.001-0.01,0.001
	c-0.001,0-0.004,0-0.005,0c-0.004,0-0.007,0-0.01,0c-0.002,0-0.005,0-0.006,0c-0.004,0-0.008,0-0.012,0c-0.002,0-0.004,0-0.006,0
	c-0.002,0.001-0.005,0.001-0.008,0.001s-0.004,0-0.007,0c-0.003,0.001-0.007,0.001-0.01,0.001c-0.002,0-0.005,0-0.006,0
	c-0.004,0-0.007,0-0.01,0s-0.005,0-0.008,0c-0.002,0-0.005,0-0.008,0c-0.001,0-0.004,0.001-0.005,0.001c-0.004,0-0.008,0-0.012,0
	c-0.002,0.001-0.005,0.001-0.006,0.001c-0.003,0-0.005,0-0.008,0s-0.006,0-0.01,0c-0.002,0-0.004,0-0.007,0
	c-0.002,0-0.004,0-0.006,0c-0.004,0-0.008,0.001-0.011,0.001s-0.004,0-0.007,0c-0.003,0.001-0.005,0.001-0.008,0.001
	s-0.005,0-0.009,0c-0.002,0-0.005,0-0.008,0c-0.002,0-0.004,0-0.006,0c-0.004,0-0.007,0-0.011,0.001c-0.003,0-0.005,0-0.007,0
	s-0.004,0-0.007,0.001c-0.003,0-0.006,0-0.009,0s-0.005,0-0.008,0c-0.002,0-0.005,0-0.007,0c-0.003,0-0.005,0-0.008,0
	s-0.006,0.001-0.01,0.001c-0.002,0-0.004,0-0.006,0.001c-0.004,0-0.007,0-0.011,0c-0.002,0-0.004,0-0.007,0
	c-0.002,0-0.005,0-0.007,0s-0.004,0-0.006,0c-0.004,0-0.008,0.001-0.012,0.001c-0.002,0-0.004,0-0.006,0.001
	c-0.002,0-0.004,0-0.007,0s-0.007,0-0.01,0s-0.005,0-0.008,0c-0.002,0-0.004,0-0.006,0c-0.003,0.001-0.008,0.001-0.011,0.001
	c-0.002,0.001-0.004,0.001-0.006,0.001c-0.003,0-0.005,0-0.008,0s-0.006,0-0.009,0s-0.006,0-0.009,0
	c-0.001,0-0.003,0.001-0.005,0.001c-0.004,0-0.009,0.001-0.013,0.001c-0.001,0-0.003,0-0.005,0c-0.003,0-0.004,0-0.008,0
	c-0.001,0-0.003,0-0.005,0c-0.004,0-0.008,0-0.012,0.001c-0.002,0-0.004,0-0.006,0c-0.004,0.001-0.008,0.001-0.012,0.001
	c-0.002,0-0.004,0-0.005,0c-0.004,0-0.005,0-0.008,0c-0.002,0-0.004,0-0.005,0c-0.004,0.001-0.009,0.001-0.013,0.002
	c-0.002,0-0.004,0-0.005,0c-0.004,0-0.008,0-0.012,0c-0.002,0-0.004,0-0.006,0s-0.006,0.001-0.008,0.001s-0.003,0-0.004,0
	c-0.005,0.001-0.01,0.001-0.015,0.001c-0.001,0-0.002,0-0.003,0c-0.009,0-0.019,0.001-0.026,0.002c-0.001,0-0.003,0-0.004,0
	c-0.005,0-0.011,0-0.015,0c-0.001,0-0.002,0-0.003,0c-0.003,0.001-0.006,0.001-0.009,0.001l0,0
	c-0.006,0.001-0.012,0.001-0.018,0.001c-0.001,0-0.002,0-0.003,0c-0.005,0-0.012,0.001-0.016,0.001
	c-0.001,0.001-0.002,0.001-0.003,0.001c-0.003,0-0.005,0-0.009,0c0,0-0.001,0-0.002,0c-0.005,0-0.011,0-0.016,0.001
	c-0.001,0-0.002,0-0.003,0c-0.009,0.001-0.018,0.001-0.026,0.001c-0.001,0-0.002,0.001-0.003,0.001
	c-0.005,0-0.011,0.001-0.016,0.001h-0.002c-0.01,0-0.018,0.001-0.027,0.002c-0.001,0-0.002,0-0.002,0c-0.007,0-0.012,0-0.019,0.001
	l0,0c-0.009,0.001-0.019,0.001-0.027,0.001h-0.002c-0.006,0.001-0.012,0.002-0.019,0.002l0,0c-0.009,0-0.019,0.001-0.028,0.002l0,0
	c-0.016,0.001-0.031,0.002-0.047,0.003h-0.001c-0.025,0.001-0.05,0.003-0.076,0.005h-0.001c-0.057,0.004-0.113,0.008-0.17,0.013
	h-0.001c-0.146,0.011-0.291,0.024-0.437,0.038l0,0c-0.025,0.002-0.05,0.004-0.075,0.007h-0.001c-0.016,0.002-0.03,0.003-0.047,0.005
	l0,0c-0.01,0.001-0.019,0.002-0.028,0.003l0,0c-0.007,0.001-0.012,0.001-0.019,0.002c0,0,0,0-0.001,0
	c-0.01,0.001-0.019,0.002-0.027,0.003l0,0c-0.007,0-0.013,0.001-0.02,0.002l0,0c-0.009,0.001-0.018,0.002-0.027,0.003
	c-0.001,0-0.001,0-0.002,0c-0.005,0.001-0.012,0.001-0.017,0.002h-0.001c-0.009,0.001-0.019,0.002-0.027,0.003
	c-0.001,0-0.002,0-0.003,0c-0.005,0.001-0.012,0.002-0.017,0.002l0,0c-0.004,0-0.007,0.001-0.01,0.001l-0.001,0.001
	c-0.006,0-0.011,0-0.017,0.001c0,0-0.002,0.001-0.003,0.001c-0.005,0-0.011,0-0.016,0.002h-0.002c-0.003,0-0.005,0-0.008,0
	c-0.002,0-0.003,0-0.004,0.001c-0.005,0.001-0.009,0.001-0.014,0.001c-0.001,0-0.003,0-0.004,0.001
	c-0.008,0.001-0.018,0.002-0.025,0.003c-0.001,0-0.003,0-0.004,0c-0.005,0-0.009,0.001-0.014,0.002c-0.001,0-0.003,0-0.004,0
	c-0.003,0-0.005,0.001-0.008,0.001c-0.001,0-0.002,0.001-0.003,0.001c-0.005,0-0.01,0-0.015,0.001
	c-0.001,0.001-0.003,0.001-0.003,0.001c-0.006,0-0.01,0-0.015,0.001C23.218,1.16,23.216,1.16,23.215,1.16c-0.003,0-0.005,0-0.008,0
	c-0.002,0.001-0.003,0.001-0.005,0.001c-0.004,0.001-0.008,0.001-0.012,0.001c-0.002,0.001-0.004,0.001-0.006,0.001
	c-0.003,0.001-0.006,0.001-0.009,0.001s-0.006,0.001-0.008,0.002c-0.003,0-0.005,0-0.007,0s-0.005,0-0.007,0.001
	c-0.003,0.001-0.007,0.001-0.01,0.001c-0.002,0-0.005,0-0.007,0.001c-0.002,0-0.004,0.001-0.006,0.001c-0.004,0-0.007,0-0.011,0.001
	c-0.002,0-0.004,0.001-0.007,0.001c-0.002,0-0.004,0-0.007,0c-0.003,0.001-0.005,0.002-0.009,0.002c-0.002,0-0.005,0-0.008,0
	c-0.002,0.001-0.003,0.001-0.006,0.002c-0.004,0-0.007,0-0.011,0c-0.002,0.001-0.003,0.001-0.006,0.002c-0.002,0-0.005,0-0.008,0
	c-0.002,0-0.004,0.001-0.007,0.002c-0.003,0-0.006,0-0.01,0c-0.001,0-0.004,0.001-0.005,0.001c-0.004,0.001-0.008,0.001-0.012,0.001
	c-0.001,0.001-0.003,0.001-0.004,0.001c-0.004,0.001-0.007,0.001-0.01,0.001c-0.001,0-0.003,0-0.005,0.001
	c-0.003,0.001-0.007,0.001-0.011,0.001c-0.002,0-0.004,0.001-0.006,0.001c-0.003,0.001-0.007,0.001-0.01,0.001
	c-0.002,0-0.004,0.001-0.005,0.001c-0.004,0.001-0.007,0.001-0.01,0.001c-0.002,0-0.003,0-0.005,0.001
	c-0.004,0.001-0.008,0.001-0.012,0.001c-0.001,0-0.003,0.001-0.004,0.001c-0.004,0.001-0.008,0.001-0.012,0.001h-0.002
	c-0.005,0.002-0.009,0.002-0.013,0.002c-0.001,0-0.003,0-0.004,0.001c-0.004,0.001-0.009,0.001-0.013,0.001
	c-0.001,0-0.002,0.001-0.003,0.001c-0.004,0.001-0.008,0.001-0.013,0.001L22.888,1.2c-0.005,0.001-0.009,0.001-0.014,0.001
	c-0.001,0-0.001,0-0.003,0.001c-0.005,0.001-0.009,0.001-0.014,0.001c-0.001,0.001,0,0.001-0.001,0.001
	c-0.005,0.001-0.009,0.001-0.014,0.001l-0.002,0.001c-0.004,0.001-0.009,0.001-0.014,0.002c-0.001,0-0.001,0-0.002,0
	c-0.01,0.001-0.02,0.003-0.029,0.004l0,0c-0.005,0.001-0.01,0.001-0.015,0.002c-0.001,0-0.001,0-0.002,0.001
	c-0.01,0-0.02,0.002-0.029,0.004c-0.001,0,0,0-0.001,0c-0.005,0-0.01,0.001-0.015,0.002l0,0c-0.24,0.032-0.479,0.068-0.717,0.107
	l0.329,1.974C23.545,3.102,24.774,3,26,3V1L26,1L26,1z M18.146,2.314c-1.199,0.416-2.356,0.924-3.461,1.516l0,0
	c-0.014,0.007-0.027,0.014-0.041,0.021c0,0,0,0-0.001,0c-0.004,0.002-0.009,0.005-0.013,0.008h-0.001
	c-0.009,0.004-0.017,0.01-0.025,0.014c-0.001,0-0.002,0.001-0.002,0.002c-0.004,0.002-0.008,0.004-0.012,0.006
	c-0.001,0-0.002,0-0.002,0c-0.005,0.003-0.009,0.006-0.013,0.008c-0.001,0-0.001,0-0.002,0c-0.003,0.002-0.007,0.004-0.011,0.007
	c0,0-0.001,0.001-0.002,0.001c-0.004,0.002-0.008,0.004-0.012,0.006c-0.001,0.001-0.002,0.001-0.003,0.002
	c-0.004,0.002-0.007,0.004-0.011,0.006c-0.001,0-0.002,0.001-0.004,0.002c-0.003,0.002-0.006,0.004-0.009,0.005
	c-0.001,0.001-0.003,0.002-0.005,0.003c-0.003,0.002-0.006,0.003-0.009,0.004c-0.002,0.002-0.002,0.002-0.004,0.003
	c-0.003,0.002-0.007,0.003-0.01,0.005c-0.001,0.001-0.002,0.001-0.002,0.001l0.96,1.755c1.07-0.586,2.196-1.084,3.347-1.482
	L18.146,2.314L18.146,2.314z M11.16,6.137c-0.381,0.3-0.753,0.611-1.114,0.934c-0.001,0,0-0.001,0-0.001
	c-0.004,0.004-0.008,0.007-0.012,0.011l0,0c-0.008,0.008-0.016,0.014-0.023,0.021l0,0C10.007,7.104,10.003,7.107,10,7.111
	c-0.001,0-0.001,0-0.001,0c-0.004,0.004-0.008,0.008-0.011,0.01C9.987,7.122,9.987,7.122,9.987,7.123
	c-0.008,0.006-0.016,0.014-0.022,0.02H9.964C9.96,7.146,9.957,7.15,9.953,7.152L9.952,7.154C9.948,7.157,9.945,7.16,9.941,7.164
	H9.94c-0.007,0.007-0.015,0.014-0.021,0.02L9.917,7.186c-0.003,0.003-0.007,0.006-0.01,0.01c-0.001,0-0.001,0-0.002,0
	c-0.003,0.004-0.007,0.007-0.011,0.01v0.001C9.887,7.213,9.88,7.219,9.872,7.227c0,0,0,0-0.001,0C9.867,7.23,9.864,7.233,9.86,7.236
	c-0.001,0.001,0,0.001-0.001,0.002c-0.004,0.003-0.007,0.006-0.011,0.01H9.848c-0.003,0.004-0.007,0.006-0.011,0.01l0,0
	C9.833,7.262,9.83,7.265,9.826,7.268c0,0-0.001,0.002-0.002,0.002c-0.003,0.003-0.007,0.006-0.01,0.01c-0.001,0-0.001,0-0.002,0.001
	C9.81,7.283,9.806,7.287,9.803,7.289c0,0-0.001,0.001-0.001,0.002C9.798,7.293,9.795,7.297,9.792,7.3
	C9.791,7.301,9.791,7.301,9.79,7.301c-0.003,0.003-0.007,0.006-0.01,0.01c-0.001,0-0.001,0.001-0.002,0.002
	c-0.003,0.002-0.007,0.006-0.01,0.009c0,0-0.001,0.001-0.002,0.001C9.76,7.328,9.753,7.336,9.746,7.342
	c-0.001,0-0.001,0.001-0.002,0.002C9.741,7.346,9.737,7.35,9.734,7.352C9.733,7.354,9.733,7.354,9.733,7.354
	C9.729,7.357,9.726,7.36,9.723,7.363c0,0-0.002,0.001-0.002,0.002c-0.003,0.003-0.007,0.006-0.01,0.009L9.71,7.375
	C9.707,7.378,9.703,7.381,9.7,7.385c-0.001,0-0.002,0-0.002,0c-0.003,0.004-0.007,0.007-0.01,0.01
	C9.688,7.396,9.688,7.396,9.686,7.396C9.683,7.4,9.68,7.402,9.677,7.406c0,0-0.001,0-0.002,0.001
	C9.672,7.41,9.669,7.413,9.665,7.416c0,0,0,0.001-0.001,0.002C9.661,7.42,9.657,7.424,9.654,7.426
	C9.653,7.427,9.652,7.428,9.652,7.428c-0.003,0.004-0.007,0.006-0.01,0.01c0,0-0.002,0.002-0.003,0.002
	C9.637,7.442,9.634,7.445,9.631,7.448C9.63,7.449,9.63,7.449,9.63,7.449c-0.004,0.004-0.007,0.006-0.01,0.01
	c-0.001,0-0.001,0-0.002,0.001c-0.003,0.003-0.006,0.006-0.01,0.009L9.606,7.471C9.604,7.475,9.6,7.477,9.597,7.48L9.595,7.482
	c-0.003,0.003-0.007,0.006-0.01,0.009C9.584,7.492,9.584,7.492,9.584,7.492c-0.003,0.003-0.007,0.006-0.01,0.009
	C9.573,7.502,9.573,7.502,9.572,7.503C9.569,7.506,9.566,7.509,9.563,7.512C9.562,7.513,9.562,7.514,9.561,7.514
	c-0.003,0.004-0.006,0.006-0.01,0.01L9.55,7.524c-0.004,0.003-0.008,0.007-0.011,0.01v0.001C9.535,7.538,9.532,7.541,9.528,7.544
	c0,0.001-0.001,0.001-0.001,0.001c-0.004,0.004-0.007,0.007-0.01,0.01C9.516,7.557,9.517,7.556,9.516,7.557
	c-0.004,0.003-0.007,0.006-0.01,0.01c-0.001,0-0.002,0.001-0.002,0.001C9.5,7.57,9.497,7.574,9.493,7.577l0,0
	C9.49,7.58,9.486,7.584,9.483,7.587L9.482,7.588c-0.004,0.004-0.008,0.007-0.011,0.01C9.472,7.599,9.471,7.6,9.47,7.6
	c-0.003,0.004-0.007,0.006-0.01,0.01L9.459,7.61C9.455,7.613,9.452,7.617,9.448,7.62c0,0.001,0,0,0,0.001
	c-0.004,0.002-0.007,0.006-0.011,0.01L9.437,7.632C9.433,7.635,9.43,7.639,9.427,7.641C9.426,7.642,9.426,7.643,9.425,7.643
	c-0.004,0.004-0.007,0.007-0.011,0.01c0,0.001,0,0,0,0.001C9.41,7.656,9.407,7.66,9.403,7.663v0.001
	C9.399,7.667,9.396,7.67,9.393,7.674c0,0-0.001,0-0.001,0.001c-0.004,0.003-0.007,0.007-0.011,0.01L9.38,7.686
	c-0.004,0.004-0.007,0.007-0.011,0.01v0.001c-0.004,0.003-0.007,0.007-0.011,0.01L9.357,7.707c-0.003,0.004-0.007,0.007-0.01,0.01
	c-0.001,0-0.001,0.001-0.002,0.002c-0.003,0.003-0.007,0.006-0.01,0.01H9.335C9.328,7.736,9.32,7.742,9.313,7.75H9.312
	C9.31,7.754,9.306,7.757,9.303,7.76L9.301,7.762c-0.003,0.004-0.007,0.007-0.01,0.01H9.29C9.283,7.779,9.275,7.786,9.269,7.793
	L9.268,7.794c-0.003,0.003-0.007,0.007-0.01,0.011c-0.001,0-0.001,0-0.001,0C9.245,7.816,9.234,7.826,9.224,7.838l0,0
	C9.22,7.841,9.216,7.845,9.213,7.848c-0.001,0.001,0,0,0,0C9.201,7.859,9.19,7.87,9.179,7.881l0,0
	C8.855,8.199,8.542,8.525,8.237,8.86l1.479,1.345c0.82-0.902,1.723-1.742,2.681-2.498L11.16,6.137L11.16,6.137z M5.804,12.029
	c-0.23,0.357-0.451,0.721-0.663,1.092l0,0c-0.007,0.014-0.015,0.027-0.022,0.041l0,0c-0.003,0.004-0.005,0.008-0.008,0.013v0.001
	c-0.003,0.004-0.005,0.008-0.008,0.013l0,0c-0.003,0.005-0.005,0.009-0.008,0.013c0,0,0,0,0,0.002
	c-0.002,0.004-0.005,0.008-0.007,0.012c0,0-0.001,0.001-0.001,0.002c-0.002,0.004-0.005,0.008-0.007,0.012
	c-0.001,0.001-0.001,0.001-0.001,0.001c-0.005,0.009-0.01,0.018-0.015,0.026c0,0,0,0-0.001,0.002
	c-0.002,0.004-0.004,0.008-0.007,0.012v0.001c-0.003,0.005-0.005,0.009-0.008,0.013c0,0,0,0.001-0.001,0.002
	c-0.002,0.004-0.004,0.008-0.006,0.012c-0.001,0,0,0-0.001,0.001c-0.002,0.004-0.004,0.008-0.007,0.012l-0.001,0.003
	c-0.002,0.004-0.005,0.008-0.007,0.012l-0.001,0.002c-0.002,0.004-0.005,0.008-0.007,0.012c0,0,0,0-0.001,0.002
	c-0.002,0.003-0.004,0.007-0.006,0.01c-0.001,0.002-0.001,0.002-0.001,0.003c-0.002,0.004-0.004,0.007-0.007,0.011
	c0,0.002-0.001,0.002-0.002,0.004C5,13.371,4.998,13.375,4.996,13.378c0,0.001-0.001,0.002-0.001,0.003
	c-0.002,0.004-0.004,0.007-0.006,0.01c-0.001,0.002-0.001,0.002-0.002,0.003c-0.002,0.004-0.004,0.007-0.006,0.011
	c0,0.001-0.001,0.003-0.002,0.004c-0.002,0.004-0.004,0.007-0.006,0.01c0,0.002-0.001,0.003-0.002,0.004
	c-0.002,0.004-0.004,0.008-0.006,0.012c-0.001,0.001-0.001,0.001-0.001,0.001c-0.002,0.005-0.004,0.007-0.006,0.011
	c0,0-0.001,0.002-0.002,0.004c-0.002,0.003-0.003,0.006-0.005,0.01c-0.001,0.001-0.002,0.003-0.003,0.004
	c-0.002,0.004-0.004,0.007-0.005,0.01c-0.001,0.002-0.002,0.003-0.003,0.005c-0.002,0.003-0.003,0.006-0.005,0.009
	c0,0.001-0.002,0.004-0.002,0.005C4.933,13.494,4.931,13.496,4.93,13.5c-0.001,0.002-0.002,0.002-0.003,0.004
	c-0.002,0.004-0.003,0.006-0.005,0.01c-0.001,0.002-0.002,0.004-0.003,0.005c-0.001,0.003-0.003,0.006-0.005,0.009
	c-0.001,0.002-0.002,0.004-0.003,0.006s-0.003,0.004-0.004,0.007c-0.001,0.002-0.002,0.003-0.003,0.005
	c-0.001,0.004-0.003,0.006-0.005,0.01c-0.001,0.001-0.002,0.003-0.002,0.004c-0.002,0.004-0.004,0.007-0.006,0.01
	c-0.001,0.002-0.001,0.004-0.003,0.006c-0.001,0.002-0.002,0.004-0.004,0.006c-0.001,0.004-0.002,0.006-0.004,0.008
	c-0.001,0.002-0.002,0.005-0.003,0.007S4.875,13.6,4.874,13.602s-0.003,0.005-0.004,0.008c-0.001,0.001-0.003,0.004-0.003,0.006
	c-0.002,0.002-0.003,0.005-0.005,0.008c-0.001,0.002-0.002,0.004-0.004,0.007c-0.001,0.001-0.001,0.003-0.002,0.005
	c-0.002,0.003-0.004,0.007-0.006,0.01c-0.001,0.002-0.002,0.004-0.002,0.005c-0.001,0.002-0.003,0.005-0.004,0.007
	s-0.003,0.005-0.004,0.008c-0.002,0.002-0.003,0.005-0.004,0.007c-0.001,0.001-0.002,0.003-0.002,0.004
	c-0.003,0.004-0.004,0.007-0.006,0.011c-0.001,0.002-0.002,0.003-0.003,0.004c-0.002,0.004-0.004,0.008-0.006,0.012
	c0,0-0.001,0.002-0.002,0.004s-0.002,0.004-0.004,0.007c0,0.001,0,0.001,0,0.001c-0.003,0.005-0.006,0.01-0.008,0.014l-0.001,0.002
	c-0.003,0.006-0.005,0.01-0.008,0.015v0.001c-0.005,0.008-0.009,0.016-0.013,0.023c0,0,0,0-0.001,0.001
	c-0.002,0.005-0.005,0.009-0.008,0.015c0,0,0,0.001-0.001,0.002c-0.002,0.006-0.005,0.01-0.008,0.015v0.001
	c-0.004,0.008-0.008,0.016-0.013,0.023l0,0c-0.003,0.006-0.005,0.01-0.008,0.016c0,0,0,0-0.001,0
	c-0.007,0.014-0.014,0.027-0.021,0.04c0,0.001,0,0.001,0,0.001c-0.242,0.461-0.469,0.931-0.681,1.408l0,0
	c-0.002,0.006-0.004,0.012-0.007,0.017v0.001c-0.007,0.014-0.012,0.027-0.019,0.041c0,0,0,0,0,0.001
	c-0.003,0.005-0.005,0.01-0.007,0.015v0.002c-0.004,0.008-0.008,0.016-0.011,0.023C4.001,15.391,4,15.392,4,15.393
	c-0.002,0.004-0.004,0.008-0.005,0.012c-0.001,0.001-0.001,0.002-0.002,0.004c-0.002,0.004-0.003,0.008-0.005,0.011
	c-0.001,0.002-0.001,0.003-0.002,0.005c-0.001,0.003-0.002,0.004-0.003,0.008c-0.001,0.001-0.002,0.003-0.002,0.003
	c-0.002,0.005-0.003,0.009-0.005,0.012c-0.001,0.002-0.002,0.004-0.002,0.005c-0.002,0.004-0.003,0.007-0.005,0.01
	c0,0.002-0.001,0.004-0.002,0.006s-0.002,0.004-0.003,0.006c-0.001,0.004-0.003,0.007-0.004,0.01
	c-0.001,0.002-0.002,0.004-0.003,0.006s-0.002,0.006-0.003,0.008s-0.002,0.006-0.003,0.008s-0.002,0.004-0.003,0.007
	c-0.001,0.002-0.002,0.004-0.003,0.006c-0.001,0.003-0.003,0.007-0.004,0.009S3.94,15.529,3.94,15.531
	c-0.002,0.003-0.003,0.006-0.005,0.01c-0.001,0.002-0.001,0.003-0.002,0.005c-0.001,0.003-0.003,0.006-0.004,0.009l-0.001,0.003
	l1.838,0.788c0.479-1.119,1.058-2.207,1.719-3.234L5.804,12.029L5.804,12.029z M2.669,19.35c-0.033,0.137-0.065,0.273-0.096,0.412
	l0,0c-0.002,0.006-0.003,0.012-0.004,0.018v0.001c-0.002,0.009-0.004,0.017-0.006,0.026c0,0-0.001,0.001-0.001,0.002
	c-0.001,0.005-0.002,0.01-0.003,0.015c0,0,0,0.002-0.001,0.003c0,0.003-0.001,0.005-0.002,0.008v0.002
	c-0.001,0.005-0.002,0.01-0.003,0.015c-0.001,0.001-0.001,0.003-0.001,0.005c-0.001,0.004-0.002,0.007-0.003,0.011
	c0,0.002-0.001,0.005-0.001,0.007c-0.001,0.002-0.001,0.004-0.002,0.006c0,0.003-0.001,0.006-0.002,0.01
	c0,0.002-0.001,0.004-0.001,0.006c-0.001,0.003-0.001,0.006-0.002,0.008c0,0.002-0.001,0.004-0.001,0.006
	c-0.001,0.004-0.002,0.007-0.002,0.01c-0.001,0.002-0.001,0.004-0.001,0.006c-0.001,0.004-0.002,0.008-0.003,0.012
	c0,0.001-0.001,0.002-0.001,0.004c-0.001,0.003-0.001,0.006-0.002,0.009c0,0.001-0.001,0.004-0.001,0.005
	c-0.001,0.004-0.002,0.008-0.002,0.012c-0.001,0.001-0.001,0.002-0.001,0.004c-0.001,0.004-0.002,0.008-0.003,0.012
	c0,0.002,0,0.002-0.001,0.004c-0.001,0.004-0.001,0.007-0.002,0.01c0,0.002,0,0.002-0.001,0.004
	c-0.001,0.004-0.001,0.008-0.002,0.012c-0.001,0.002-0.001,0.002-0.001,0.004c-0.001,0.004-0.002,0.009-0.003,0.013
	c0,0.001,0,0.002,0,0.002c-0.001,0.005-0.002,0.009-0.003,0.013c0,0,0,0.001-0.001,0.002c0,0.004-0.001,0.009-0.002,0.014
	c-0.001,0.001-0.001,0.001-0.001,0.002c-0.001,0.005-0.002,0.01-0.003,0.014v0.002c-0.001,0.004-0.002,0.008-0.003,0.013v0.001
	c-0.001,0.005-0.002,0.01-0.003,0.014c0,0.001,0,0.002-0.001,0.002c-0.001,0.006-0.001,0.01-0.002,0.015l0,0
	c-0.002,0.005-0.003,0.01-0.004,0.015v0.001c-0.001,0.005-0.002,0.01-0.003,0.015l0,0c-0.003,0.016-0.006,0.03-0.009,0.045
	c-0.001,0.002,0,0,0,0c-0.206,1.014-0.349,2.05-0.422,3.104l1.995,0.14C4.14,22.218,4.328,21,4.613,19.818L2.669,19.35L2.669,19.35z
	 M4.099,27.104l-1.991,0.188c0.001,0.003,0.001,0.005,0.001,0.008c0,0,0,0.002,0.001,0.003c0,0.009,0.001,0.018,0.002,0.026
	c0,0.001,0,0.002,0,0.004c0.001,0.004,0.001,0.008,0.002,0.014c0,0.001,0,0.002,0,0.004c0.001,0.004,0.001,0.011,0.002,0.016
	c0,0,0,0.001,0,0.002c0,0.002,0,0.005,0.001,0.008c0,0.002,0,0.003,0,0.005c0.001,0.005,0.001,0.007,0.001,0.013
	c0.001,0.001,0.001,0.003,0.001,0.003c0,0.005,0.001,0.009,0.001,0.013c0,0.002,0.001,0.004,0.001,0.006s0,0.006,0.001,0.008
	c0,0.002,0,0.004,0,0.006c0.001,0.004,0.001,0.007,0.001,0.012c0,0.002,0.001,0.004,0.001,0.004c0,0.004,0,0.006,0.001,0.008
	c0,0.004,0,0.008,0.001,0.01c0,0.003,0,0.006,0,0.008c0.001,0.002,0.001,0.004,0.001,0.006c0,0.004,0.001,0.008,0.001,0.012
	c0,0.002,0.001,0.004,0.001,0.006s0,0.004,0.001,0.007c0,0.003,0,0.007,0.001,0.01c0,0.003,0,0.005,0,0.008
	c0.001,0.001,0.001,0.003,0.001,0.005c0,0.004,0.001,0.009,0.001,0.012c0,0.002,0.001,0.004,0.001,0.006s0,0.005,0.001,0.008
	c0,0.003,0,0.006,0.001,0.01c0,0.002,0,0.004,0.001,0.007c0,0.002,0,0.004,0,0.006c0,0.003,0.001,0.008,0.001,0.011
	c0.001,0.002,0.001,0.004,0.001,0.006c0,0.003,0.001,0.005,0.001,0.008s0.001,0.006,0.001,0.01c0,0.002,0,0.005,0.001,0.008
	c0,0,0,0.003,0,0.005c0.001,0.003,0.001,0.008,0.002,0.011c0,0.002,0,0.004,0,0.006c0,0.003,0.001,0.006,0.001,0.008
	c0,0.004,0.001,0.007,0.001,0.01c0,0.002,0.001,0.005,0.001,0.008c0,0.002,0,0.004,0.001,0.006c0,0.003,0,0.008,0.001,0.01
	c0,0.002,0,0.005,0.001,0.007c0,0.003,0,0.005,0,0.007c0.001,0.004,0.001,0.007,0.002,0.01c0,0.003,0,0.005,0,0.008
	c0.001,0.002,0.001,0.004,0.001,0.006c0,0.004,0.001,0.008,0.001,0.011c0,0.002,0.001,0.004,0.001,0.006
	c0,0.003,0,0.005,0.001,0.007c0,0.004,0.001,0.007,0.001,0.01s0,0.005,0.001,0.008c0,0.002,0,0.004,0.001,0.006
	c0,0.004,0,0.008,0.001,0.011c0,0,0,0.005,0,0.007c0.001,0.002,0.001,0.004,0.001,0.006c0.001,0.004,0.001,0.008,0.001,0.011
	c0.001,0.002,0.001,0.005,0.001,0.007c0.001,0.002,0.001,0.004,0.001,0.006c0,0.004,0.001,0.008,0.001,0.011
	c0.001,0.002,0.001,0.005,0.001,0.007s0.001,0.004,0.001,0.006c0,0.004,0.001,0.008,0.001,0.011s0.001,0.005,0.001,0.007
	s0,0.004,0.001,0.007c0,0.003,0.001,0.007,0.001,0.01s0.001,0.005,0.001,0.007s0,0.004,0.001,0.006c0,0.004,0,0.008,0.001,0.012
	c0,0.002,0,0.004,0.001,0.006c0,0,0,0.005,0.001,0.008c0,0.002,0,0.006,0.001,0.008c0,0.003,0,0.006,0.001,0.008
	c0,0.002,0,0.004,0,0.007c0.001,0.003,0.001,0.007,0.002,0.011c0,0.002,0,0.004,0,0.006c0.001,0.002,0.001,0.005,0.001,0.008
	c0.001,0.003,0.001,0.006,0.002,0.008c0,0.003,0,0.006,0,0.008c0.001,0.003,0.001,0.004,0.001,0.006
	c0.001,0.004,0.001,0.008,0.002,0.012c0,0.002,0,0.004,0,0.006c0.001,0.002,0.001,0.005,0.001,0.008
	c0.001,0.003,0.001,0.006,0.001,0.008c0.001,0.003,0.001,0.006,0.001,0.008c0.001,0.003,0.001,0.004,0.001,0.007
	c0.001,0.003,0.001,0.007,0.002,0.011c0,0.002,0,0.004,0,0.006C2.19,28.037,2.19,28.04,2.19,28.043
	c0.001,0.003,0.001,0.005,0.001,0.008c0.001,0.003,0.001,0.006,0.002,0.009c0,0.002,0,0.003,0,0.005
	c0.001,0.004,0.001,0.008,0.002,0.012c0,0.002,0,0.004,0.001,0.006c0,0.003,0,0.006,0.001,0.008c0,0.002,0,0.006,0.001,0.008
	c0,0.003,0,0.006,0.001,0.008c0,0.003,0,0.004,0,0.007C2.2,28.115,2.2,28.119,2.201,28.123c0,0.002,0,0.004,0.001,0.006
	c0,0.002,0,0.006,0.001,0.008c0,0.004,0,0.005,0.001,0.008c0,0.003,0.001,0.006,0.001,0.008c0,0.003,0,0.004,0.001,0.007
	c0,0.003,0.001,0.007,0.001,0.011c0,0.002,0.001,0.004,0.001,0.006s0.001,0.005,0.001,0.008c0,0.002,0.001,0.005,0.001,0.008
	c0.001,0.003,0.001,0.006,0.001,0.008c0.001,0.003,0.001,0.004,0.001,0.006c0.001,0.004,0.001,0.008,0.002,0.012
	c0,0.002,0,0.004,0,0.006c0.001,0.002,0.001,0.005,0.001,0.008c0.001,0.003,0.001,0.005,0.002,0.008c0,0.003,0,0.006,0.001,0.008
	c0,0.003,0,0.004,0.001,0.006c0,0.004,0.001,0.008,0.001,0.012c0,0.002,0.001,0.004,0.001,0.006s0.001,0.005,0.001,0.008
	s0.001,0.005,0.001,0.008s0.001,0.006,0.001,0.008c0.001,0.002,0.001,0.004,0.001,0.007c0.001,0.003,0.001,0.007,0.002,0.011
	c0,0,0,0.004,0,0.006c0.001,0.002,0.001,0.005,0.002,0.008c0,0.002,0,0.005,0.001,0.008c0,0.003,0,0.006,0.001,0.008
	c0,0.002,0,0.004,0.001,0.006c0,0.004,0.001,0.008,0.001,0.012c0.001,0.002,0.001,0.003,0.001,0.006
	c0,0.002,0.001,0.005,0.001,0.008c0.001,0.002,0.001,0.005,0.001,0.008c0.001,0.002,0.001,0.005,0.002,0.008
	c0,0.002,0,0.004,0,0.006c0.001,0.004,0.001,0.008,0.002,0.012c0,0.002,0,0.003,0.001,0.005c0,0.003,0.001,0.005,0.001,0.009
	c0,0.002,0.001,0.005,0.001,0.008c0.001,0.002,0.001,0.005,0.001,0.008c0.001,0.002,0.001,0.004,0.001,0.006
	c0.001,0.004,0.001,0.008,0.002,0.011c0,0.003,0,0.004,0.001,0.006c0,0.003,0,0.005,0.001,0.008c0,0.003,0.001,0.005,0.001,0.008
	S2.25,28.478,2.25,28.48c0,0.002,0.001,0.004,0.001,0.006c0.001,0.004,0.001,0.008,0.002,0.011c0,0.003,0,0.003,0.001,0.005
	c0,0.003,0,0.006,0.001,0.009c0,0.003,0.001,0.005,0.001,0.008s0.001,0.005,0.001,0.009c0.001,0.002,0.001,0.003,0.001,0.006
	c0.001,0.003,0.001,0.007,0.002,0.01c0,0.003,0,0.004,0.001,0.006c0,0.004,0,0.006,0.001,0.008c0,0.003,0.001,0.006,0.001,0.008
	c0,0.003,0.001,0.006,0.001,0.009c0.001,0.002,0.001,0.005,0.001,0.006c0.001,0.004,0.001,0.007,0.002,0.011
	c0,0.003,0,0.004,0.001,0.006c0,0.003,0.001,0.006,0.001,0.008c0,0.003,0.001,0.006,0.001,0.008
	c0.001,0.003,0.001,0.006,0.002,0.009c0,0.002,0,0.004,0,0.005c0.001,0.004,0.002,0.008,0.002,0.012
	c0,0.002,0.001,0.004,0.001,0.006s0.001,0.006,0.001,0.009c0.001,0.002,0.001,0.003,0.001,0.005c0.001,0.004,0.001,0.007,0.002,0.01
	c0,0.002,0,0.005,0.001,0.006c0,0.004,0.001,0.008,0.001,0.012c0.001,0.002,0.001,0.004,0.001,0.004
	c0.001,0.004,0.001,0.007,0.002,0.01c0,0.002,0,0.004,0.001,0.007c0,0.003,0.001,0.006,0.001,0.009c0,0.002,0.001,0.004,0.001,0.006
	c0.001,0.004,0.001,0.008,0.002,0.012c0,0.002,0,0.002,0.001,0.005c0,0.003,0.001,0.005,0.001,0.008s0.001,0.005,0.001,0.007
	c0.001,0.004,0.001,0.006,0.002,0.01c0,0.002,0,0.004,0,0.006c0.001,0.004,0.002,0.007,0.002,0.01
	c0.001,0.003,0.001,0.004,0.001,0.007c0.001,0.003,0.001,0.005,0.001,0.007c0.001,0.002,0.001,0.006,0.002,0.009
	c0,0.003,0.001,0.005,0.001,0.008s0.001,0.004,0.001,0.007c0.001,0.003,0.001,0.007,0.002,0.01c0,0.002,0,0.004,0.001,0.006
	c0,0.003,0.001,0.006,0.001,0.008s0.001,0.006,0.001,0.008c0.001,0.003,0.001,0.006,0.002,0.008c0,0.003,0,0.004,0.001,0.007
	c0,0.003,0.001,0.007,0.001,0.011c0.001,0.002,0.001,0.004,0.001,0.006c0.001,0.002,0.001,0.005,0.002,0.008
	c0,0.002,0.001,0.005,0.001,0.008c0,0.002,0.001,0.006,0.001,0.008c0.001,0.002,0.001,0.004,0.001,0.006
	c0.001,0.004,0.002,0.008,0.002,0.012c0.001,0.002,0.001,0.003,0.001,0.006c0.001,0.002,0.001,0.004,0.001,0.007
	c0.001,0.002,0.001,0.005,0.002,0.008c0,0.003,0.001,0.006,0.001,0.009c0,0.002,0.001,0.004,0.001,0.006
	c0.001,0.004,0.001,0.007,0.002,0.011c0,0.002,0.001,0.003,0.001,0.006s0.001,0.005,0.001,0.007
	c0.001,0.002,0.001,0.006,0.002,0.009c0,0.003,0.001,0.005,0.001,0.008s0.001,0.004,0.001,0.007c0.001,0.003,0.001,0.006,0.002,0.01
	c0,0.002,0.001,0.004,0.001,0.006c0,0.003,0.001,0.006,0.001,0.008c0.001,0.002,0.001,0.006,0.002,0.008
	c0,0.003,0.001,0.006,0.001,0.008s0.001,0.005,0.001,0.007c0.001,0.003,0.001,0.006,0.002,0.009c0,0.003,0.001,0.005,0.001,0.008
	c0,0,0.001,0.004,0.001,0.006c0.001,0.004,0.001,0.008,0.002,0.01c0,0.003,0.001,0.006,0.001,0.008s0.001,0.004,0.001,0.006
	c0.001,0.004,0.001,0.008,0.002,0.01c0,0.003,0.001,0.005,0.001,0.008c0.001,0.002,0.001,0.004,0.001,0.006
	c0.001,0.004,0.001,0.006,0.002,0.01c0,0.002,0.001,0.004,0.001,0.007c0.001,0.003,0.001,0.005,0.001,0.007
	c0.001,0.003,0.002,0.006,0.002,0.009s0.001,0.005,0.001,0.008c0.001,0.002,0.001,0.004,0.001,0.006
	c0.001,0.004,0.002,0.007,0.002,0.011c0.001,0.002,0.001,0.004,0.002,0.006c0,0.002,0,0.004,0.001,0.007
	c0,0.003,0.001,0.006,0.001,0.009c0.001,0.003,0.001,0.005,0.002,0.008c0,0.002,0,0.004,0.001,0.006c0,0.004,0.001,0.006,0.002,0.01
	c0,0.003,0,0.005,0.001,0.008c0,0.002,0.001,0.004,0.001,0.006c0.001,0.004,0.001,0.006,0.002,0.008c0,0.004,0,0.006,0.001,0.01
	c0,0.002,0.001,0.004,0.001,0.006c0.001,0.004,0.001,0.006,0.002,0.01c0,0.002,0.001,0.004,0.001,0.006
	c0.001,0.003,0.001,0.006,0.002,0.008c0,0.002,0,0.004,0.001,0.007c0,0.003,0.001,0.007,0.002,0.01c0,0.002,0,0.003,0.001,0.005
	c0,0.004,0.001,0.008,0.002,0.012c0,0.002,0,0.004,0.001,0.006c0,0.002,0.001,0.004,0.001,0.007s0.001,0.005,0.001,0.007
	c0.001,0.004,0.002,0.007,0.002,0.01c0.001,0.002,0.001,0.004,0.001,0.006c0.001,0.004,0.002,0.007,0.002,0.011
	c0.001,0.002,0.001,0.004,0.001,0.006c0.001,0.003,0.001,0.005,0.002,0.007c0,0.002,0,0.004,0.001,0.006
	c0.001,0.004,0.001,0.008,0.002,0.012c0,0.002,0.001,0.003,0.001,0.005c0.001,0.004,0.001,0.007,0.002,0.011
	c0,0.002,0.001,0.004,0.001,0.006c0.001,0.003,0.001,0.004,0.001,0.008c0.001,0.002,0.001,0.003,0.001,0.003
	c0.001,0.005,0.002,0.01,0.003,0.013c0,0.002,0,0.004,0.001,0.006c0,0.004,0.001,0.008,0.002,0.012c0,0.002,0.001,0.004,0.001,0.004
	c0,0.004,0.001,0.006,0.001,0.009c0.001,0.001,0.001,0.003,0.001,0.005c0.001,0.004,0.002,0.008,0.003,0.012
	c0,0.002,0,0.004,0,0.005c0.001,0.004,0.002,0.009,0.003,0.013c0,0.001,0,0.002,0.001,0.004c0,0.003,0.001,0.005,0.001,0.008
	c0,0.002,0.001,0.004,0.001,0.005c0.001,0.004,0.002,0.008,0.002,0.012c0.001,0.001,0.001,0.003,0.001,0.005
	c0.001,0.004,0.002,0.008,0.003,0.012c0,0.002,0,0.004,0.001,0.006c0,0.002,0.001,0.004,0.001,0.007
	c0.001,0.002,0.001,0.003,0.001,0.005c0.001,0.004,0.002,0.008,0.002,0.012c0.001,0.002,0.001,0.004,0.001,0.005
	c0.001,0.004,0.002,0.009,0.003,0.013c0,0.001,0,0.002,0.001,0.004c0,0.004,0.001,0.005,0.001,0.008
	C2.44,29.6,2.44,29.601,2.44,29.601c0.001,0.005,0.002,0.011,0.003,0.014c0,0.002,0,0.003,0.001,0.005
	c0,0.005,0.001,0.008,0.002,0.013c0,0.001,0.001,0.003,0.001,0.003c0,0.004,0.001,0.006,0.001,0.01c0.001,0,0.001,0.002,0.001,0.002
	c0.001,0.006,0.002,0.01,0.003,0.015c0,0,0,0.002,0.001,0.003c0.001,0.005,0.002,0.01,0.002,0.014
	c0.001,0.002,0.001,0.003,0.001,0.003c0.001,0.004,0.001,0.006,0.002,0.009c0,0.002,0,0.002,0,0.004
	c0.001,0.004,0.002,0.009,0.003,0.014c0,0,0.001,0.002,0.001,0.004c0.001,0.004,0.002,0.01,0.003,0.014v0.003
	c0.001,0.003,0.001,0.005,0.002,0.009c0,0,0,0,0,0.001c0.001,0.005,0.003,0.011,0.004,0.016v0.003
	c0.001,0.006,0.002,0.011,0.004,0.016v0.002c0,0.002,0.001,0.006,0.002,0.008c0,0,0,0.001,0,0.002
	c0.001,0.005,0.002,0.01,0.003,0.016l0.001,0.003c0.001,0.005,0.002,0.011,0.003,0.015c0,0.001,0,0.002,0,0.002
	c0.001,0.004,0.001,0.006,0.002,0.009c0,0,0,0.001,0,0.003c0.001,0.004,0.003,0.01,0.004,0.015c0,0,0,0.001,0,0.003
	c0.001,0.005,0.003,0.012,0.004,0.017l0,0c0,0.003,0.001,0.006,0.002,0.009c0,0,0,0.001,0,0.002c0.001,0.005,0.002,0.01,0.003,0.016
	c0.001,0.001,0.001,0.002,0.001,0.002c0.001,0.006,0.002,0.011,0.003,0.017c0,0,0,0.001,0.001,0.001
	c0,0.003,0.001,0.006,0.001,0.009v0.001c0.002,0.006,0.003,0.011,0.004,0.017v0.001c0.004,0.016,0.007,0.029,0.01,0.045v0.002
	c0.004,0.016,0.007,0.029,0.01,0.044v0.001c0.002,0.01,0.004,0.018,0.006,0.027l0,0c0.001,0.006,0.003,0.012,0.004,0.018v0.001
	c0.004,0.015,0.007,0.029,0.01,0.044c0,0,0,0.001,0,0.002c0.004,0.015,0.007,0.029,0.01,0.045l0,0
	c0.079,0.356,0.164,0.709,0.259,1.06l1.932-0.518C4.433,29.533,4.214,28.32,4.099,27.104L4.099,27.104z M5.987,34.152l-1.818,0.832
	c0.393,0.857,0.834,1.687,1.32,2.486l0,0c0.006,0.008,0.011,0.017,0.017,0.025v0.001c0.003,0.004,0.005,0.009,0.008,0.013l0,0
	c0.003,0.005,0.006,0.01,0.008,0.014c0.001,0,0.001,0,0.001,0c0.003,0.005,0.005,0.008,0.008,0.012c0,0.002,0,0.001,0,0.002
	c0.003,0.004,0.005,0.008,0.008,0.012l0.001,0.002c0.002,0.004,0.005,0.008,0.007,0.012c0,0,0.001,0.002,0.002,0.002
	c0.002,0.004,0.004,0.008,0.007,0.012l0.001,0.002c0.002,0.003,0.004,0.006,0.006,0.01c0.001,0.002,0.001,0.002,0.002,0.003
	c0.002,0.003,0.005,0.007,0.007,0.011c0.001,0.001,0.001,0.002,0.002,0.003c0.002,0.004,0.004,0.007,0.007,0.011
	c0,0,0.001,0.002,0.002,0.004c0.002,0.002,0.003,0.005,0.005,0.008c0.001,0.002,0.002,0.003,0.003,0.005
	c0.002,0.003,0.004,0.005,0.005,0.009c0.002,0.002,0.002,0.002,0.003,0.004c0.002,0.003,0.004,0.006,0.006,0.01
	c0.001,0.002,0.002,0.002,0.003,0.004c0.002,0.003,0.004,0.006,0.005,0.008s0.003,0.005,0.004,0.007s0.003,0.004,0.004,0.006
	s0.003,0.005,0.004,0.007c0.002,0.002,0.004,0.005,0.005,0.008c0.001,0.002,0.002,0.003,0.003,0.005
	c0.002,0.003,0.004,0.005,0.006,0.009c0.001,0.002,0.002,0.004,0.004,0.006c0.001,0.002,0.002,0.003,0.003,0.005
	c0.002,0.003,0.004,0.006,0.006,0.009c0.001,0.002,0.002,0.003,0.003,0.004c0.002,0.004,0.005,0.009,0.007,0.013
	c0.001,0.001,0.001,0.001,0.002,0.002c0.001,0.003,0.002,0.005,0.004,0.007c0.001,0.001,0.001,0.002,0.002,0.002
	c0.003,0.005,0.005,0.009,0.008,0.014c0,0,0.001,0,0.001,0.002c0.003,0.004,0.006,0.008,0.009,0.014l0,0
	c0.146,0.23,0.294,0.457,0.446,0.682l1.655-1.123C7.099,36.332,6.494,35.259,5.987,34.152L5.987,34.152z M28.808,1.162l-0.231,1.986
	c1.213,0.143,2.42,0.387,3.589,0.727l0.559-1.92c-0.183-0.054-0.366-0.105-0.551-0.154l0,0c-0.015-0.004-0.029-0.008-0.045-0.012
	h-0.001c-0.01-0.002-0.02-0.005-0.029-0.008l0,0c-0.005-0.001-0.01-0.002-0.015-0.004h-0.001c-0.005-0.001-0.01-0.002-0.014-0.004
	h-0.001c-0.01-0.002-0.02-0.005-0.028-0.008c-0.001,0-0.001,0-0.002,0c-0.005-0.001-0.01-0.002-0.014-0.004h-0.001
	c-0.005-0.001-0.01-0.002-0.015-0.004c0,0,0.001,0,0,0c-0.005-0.001-0.01-0.002-0.014-0.004c-0.001,0-0.002,0-0.002,0
	c-0.005-0.001-0.01-0.002-0.014-0.004h-0.002c-0.004-0.001-0.009-0.002-0.013-0.003c-0.001-0.001-0.001-0.001-0.002-0.001
	c-0.004,0-0.008-0.002-0.013-0.003c-0.001-0.001-0.002-0.001-0.003-0.001c-0.004-0.001-0.009-0.002-0.013-0.003
	c-0.001-0.001-0.002-0.001-0.002-0.001c-0.005-0.001-0.009-0.002-0.012-0.003c-0.001,0-0.002,0-0.003-0.001
	c-0.004,0-0.008-0.002-0.013-0.002C31.903,1.731,31.902,1.731,31.9,1.73c-0.004,0-0.008-0.002-0.012-0.002
	c-0.001-0.001-0.002-0.002-0.004-0.002c-0.003,0-0.007-0.002-0.01-0.002c-0.001,0-0.003-0.001-0.004-0.001
	c-0.004-0.001-0.008-0.002-0.011-0.003c-0.002,0-0.003-0.001-0.005-0.002c-0.004,0-0.008-0.001-0.012-0.002
	c-0.001,0-0.003-0.001-0.004-0.002c-0.003,0-0.006-0.001-0.009-0.002c-0.003,0-0.005-0.001-0.007-0.002
	c-0.003,0-0.006-0.001-0.009-0.002c-0.002,0-0.004,0-0.006-0.001c-0.003-0.001-0.007-0.001-0.011-0.003
	c-0.002,0-0.003,0-0.005-0.001c-0.003-0.001-0.006-0.001-0.008-0.002c-0.003-0.001-0.005-0.001-0.008-0.002
	s-0.005-0.001-0.008-0.002c-0.002-0.001-0.004-0.001-0.007-0.001c-0.003-0.002-0.006-0.002-0.009-0.003s-0.005-0.001-0.007-0.001
	c-0.002-0.001-0.004-0.002-0.006-0.002c-0.004-0.001-0.008-0.002-0.011-0.002c-0.002-0.001-0.004-0.002-0.006-0.002
	c-0.002-0.001-0.004-0.002-0.007-0.002s-0.006-0.002-0.01-0.002c-0.002-0.001-0.004-0.002-0.007-0.002
	c-0.002,0-0.004-0.001-0.005-0.002c-0.004,0-0.008-0.002-0.011-0.002c-0.002,0-0.004-0.001-0.006-0.002
	c-0.002,0-0.005,0-0.007-0.001c-0.003-0.001-0.005-0.001-0.008-0.002s-0.006-0.001-0.01-0.003c-0.001,0-0.002,0-0.004,0
	c-0.004-0.002-0.008-0.002-0.013-0.004c-0.001,0-0.003,0-0.004,0c-0.008-0.002-0.017-0.004-0.024-0.006
	c-0.001-0.001-0.003-0.001-0.003-0.001c-0.005-0.001-0.01-0.003-0.015-0.004c-0.001,0-0.002-0.001-0.003-0.001
	c-0.009-0.002-0.016-0.004-0.025-0.006c-0.001,0-0.002,0-0.003,0c-0.004-0.002-0.01-0.003-0.015-0.004c-0.001,0-0.001,0-0.001,0
	c-0.01-0.002-0.019-0.004-0.027-0.007l0,0c-0.006-0.001-0.012-0.003-0.018-0.004l-0.001-0.001c-0.009-0.002-0.018-0.004-0.026-0.006
	h-0.001c-0.006-0.002-0.011-0.002-0.017-0.004c-0.001,0-0.001,0-0.001,0c-0.55-0.128-1.107-0.236-1.671-0.326l0,0
	c-0.016-0.002-0.03-0.005-0.046-0.008c-0.001,0-0.001,0-0.002,0c-0.006,0-0.011-0.002-0.017-0.002H29.72
	c-0.003-0.001-0.006-0.002-0.009-0.002l0,0c-0.006-0.001-0.012-0.002-0.018-0.003c-0.001,0-0.002,0-0.002,0
	c-0.006-0.001-0.011-0.002-0.016-0.003c-0.001,0-0.002,0-0.003,0c-0.003,0-0.005-0.001-0.009-0.002c-0.001,0-0.003,0-0.004,0
	c-0.004,0-0.009-0.002-0.013-0.002c-0.002,0-0.003,0-0.005,0c-0.004-0.002-0.008-0.002-0.012-0.002
	c-0.002-0.001-0.004-0.001-0.005-0.002c-0.003,0-0.005,0-0.008,0c-0.002-0.001-0.005-0.002-0.007-0.002c-0.004,0-0.007,0-0.01-0.001
	c-0.002-0.001-0.004-0.001-0.006-0.001c-0.004,0-0.007-0.001-0.01-0.002c-0.003,0-0.005,0-0.008,0
	c-0.002-0.001-0.004-0.002-0.006-0.002c-0.004,0-0.007,0-0.011-0.001c-0.002-0.001-0.004-0.001-0.006-0.001
	c-0.003,0-0.006-0.001-0.008-0.002c-0.002,0-0.005,0-0.007,0c-0.004-0.001-0.007-0.002-0.01-0.002c-0.002,0-0.004,0-0.006,0
	c-0.004-0.001-0.008-0.002-0.011-0.002c-0.002,0-0.003-0.001-0.005-0.001c-0.003-0.001-0.007-0.001-0.01-0.001
	c-0.001,0-0.004-0.001-0.005-0.001c-0.004-0.001-0.008-0.001-0.012-0.002c0,0-0.002-0.001-0.004-0.001
	c-0.004,0-0.008-0.001-0.012-0.002c-0.002,0-0.003,0-0.005,0c-0.003,0-0.007-0.001-0.011-0.002c-0.001,0-0.002,0-0.003,0
	c-0.004,0-0.008-0.002-0.013-0.002c-0.001,0-0.003,0-0.004,0c-0.004-0.001-0.008-0.002-0.013-0.002c-0.001,0-0.002,0-0.003,0
	C29.413,1.24,29.408,1.24,29.404,1.24c-0.001-0.001,0,0-0.001-0.001c-0.005-0.001-0.01-0.001-0.015-0.002h-0.001
	c-0.006-0.001-0.01-0.001-0.015-0.002c-0.001-0.001-0.001-0.001-0.002-0.001c-0.01-0.001-0.02-0.002-0.029-0.004h-0.001
	c-0.005,0-0.011-0.001-0.016-0.002l0,0c-0.011-0.002-0.021-0.003-0.031-0.004l0,0C29.133,1.202,28.971,1.182,28.808,1.162
	L28.808,1.162z"/>
<g>
	<path fill-rule="evenodd" clip-rule="evenodd" fill="#FFB400" d="M47.596,15.495L43.4,11.3l0.66-9.239L43,1l-2.64,7.26
		l-3.421-3.421l0.757-2.777l-0.354-0.354l-5.656,5.656l0.354,0.354l2.777-0.757l3.421,3.421l-7.26,2.639l1.061,1.061l9.239-0.658
		l4.195,4.195c0.586,0.586,1.536,0.586,2.122,0S48.182,16.081,47.596,15.495z"/>
</g>
<polygon fill="none" points="34.428,28.851 34.41,28.799 34.443,27.931 33.705,28.67 33.705,30.533 34.939,30.533 34.865,29.407 "/>
<g>
	<circle fill="#5D5D5F" cx="26" cy="33" r="15.5"/>
	<g>
		<path fill="#0E0E0E" d="M26,17c-8.836,0-16,7.164-16,16c0,8.837,7.164,16,16,16c8.838,0,16-7.163,16-16C42,24.164,34.838,17,26,17
			z M26,48c-3.522,0-6.758-1.229-9.321-3.269l0.625-0.649l0.017-0.027l0.576-1.522l0-0.055l-0.33-0.906l-0.045-0.046l-2.351-0.933
			l-0.689-2.35l-0.041-0.048l-2.959-1.48c-0.04-0.154-0.085-0.307-0.12-0.463l0.036-3.292l3.545-2.364l0.033-0.046l0.164-0.617
			l-0.014-0.069l-1.967-2.5l-0.464-1.268c0.416-0.797,0.903-1.549,1.449-2.254l1.132,0.251l0.161,2.779l0.026,0.055l0.493,0.452
			l0.122-0.018l2.304-3.827l-0.003-0.087l-1.236-1.73l-0.388-0.507C19.308,19.206,22.513,18,26,18c3.513,0,6.74,1.223,9.3,3.253
			l-2.376,0.063L32.9,21.32l-2.379,0.819l-3.609,0.288l-0.053,0.024l-1.686,1.77l-0.016,0.086l0.247,0.576l0.073,0.048h0.535
			l0.025-0.005l0.443-0.147l0.213,0.248l0.049,0.026l0.617,0.082l0.08-0.04l0.678-1.234h1.107v0.958l-1.023,1.023h-1.498
			l-0.471-0.471l-0.135,0.057v0.538h-1.279l-0.056,0.022l-0.779,0.779h-0.523l-0.056,0.136l0.666,0.666v0.824h-1.556l-0.08,0.079
			v1.563l0.023,0.057l0.391,0.391l0.094,0.014l1.173-0.639l0.026-0.023l0.758-1.077h0.535l0.056-0.023l0.306-0.306h0.297L27,29.688
			l-0.037,0.465l0.135,0.062l0.617-0.617l0.014-0.094l-0.68-1.282h0.535l0.695,0.694v1.078l0.078,0.079h0.412l0.057-0.023
			l0.656-0.655h0.398l0.078-0.08V28.3l0.406-0.406h1.047l1.002,1.002v0.732h-1.875l-0.08,0.079v0.741l0.08,0.078h0.867v0.665h-3.131
			l-0.029,0.006l-1.062,0.433l-0.484-0.483L26.5,30.466l-0.076-0.057h-2.14l-0.056,0.023L23.861,30.8h-0.894l-0.056,0.023
			l-1.739,1.738l-0.022,0.057v2.932l0.022,0.057l1.734,1.733l0.056,0.022h0.787l0.056-0.022l0.556-0.556h1.207l0.754,0.755v2.546
			l-0.439,0.438l-0.022,0.057v2.089l0.022,0.056l1.375,1.374l0.055,0.023h1.457l0.057-0.023l1.242-1.242l0.023-0.057v-0.757
			l1.844-1.845l0.023-0.057v-1.103l2.453-2.454l-0.055-0.135h-2.217v-1.312l-0.008-0.033l-1.182-2.562h0.895l1.213,2.792
			l0.068,0.047l0.656,0.041l0.043-0.008l2.387-1.193l0.029-0.115l-0.576-0.863L35.6,33.208h-0.855l-0.547-1.167l0.441-0.031
			l1.412,0.686l1.98,1.657v1.609l0.023,0.056l0.699,0.7l0.123-0.014l1.102-1.714l0.951-0.611C40.231,42.005,33.806,48,26,48z
			 M34.428,28.851l0.438,0.557l0.074,1.126h-1.234V28.67l0.738-0.739l-0.033,0.868L34.428,28.851z"/>
		<polygon fill="#0E0E0E" points="24.613,24.852 24.613,23.905 24.223,23.514 24.223,22.218 23.584,22.218 23.297,22.876 
			23.297,23.781 22.762,24.316 22.762,25.839 23.625,25.839 		"/>
		<polygon fill="#0E0E0E" points="22.391,23.74 21.98,23.946 21.692,25.016 22.391,25.016 		"/>
		<polygon fill="#0E0E0E" points="33.496,40.203 33.422,40.282 33.422,40.99 32.541,41.872 32.518,41.929 32.518,42.957 
			32.596,43.036 33.295,43.036 33.365,42.993 34.148,41.471 34.156,41.435 34.156,40.241 34.072,40.162 		"/>
	</g>
</g>
</svg>
