<?xml version="1.0" encoding="utf-8"?>
<!-- Generator: Adobe Illustrator 16.0.0, SVG Export Plug-In . SVG Version: 6.00 Build 0)  -->
<!DOCTYPE svg PUBLIC "-//W3C//DTD SVG 1.0//EN" "http://www.w3.org/TR/2001/REC-SVG-20010904/DTD/svg10.dtd">
<svg version="1.0" id="Layer_1" xmlns="http://www.w3.org/2000/svg" xmlns:xlink="http://www.w3.org/1999/xlink" x="0px" y="0px"
	 width="32px" height="32px" viewBox="0 0 32 32" enable-background="new 0 0 32 32" xml:space="preserve">
<g>
	<g>
		<path fill-rule="evenodd" clip-rule="evenodd" d="M1162.498,504.998L1156,505l-6.501-7H1148l3.266,6.997l-4.267,0.001l-1.499-2
			h-1.5l1,5l17.498,0.002c0.831,0,1.502-0.671,1.502-1.5C1164,505.67,1163.326,504.998,1162.498,504.998z"/>
	</g>
	<g>
		<circle cx="1140" cy="515.5" r="1"/>
		<path d="M1140,515c0.276,0,0.5,0.224,0.5,0.5s-0.224,0.5-0.5,0.5s-0.5-0.224-0.5-0.5S1139.724,515,1140,515 M1140,514
			c-0.827,0-1.5,0.673-1.5,1.5s0.673,1.5,1.5,1.5s1.5-0.673,1.5-1.5S1140.827,514,1140,514L1140,514z"/>
	</g>
	<g>
		<path d="M1168,515c0.276,0,0.5,0.224,0.5,0.5s-0.224,0.5-0.5,0.5s-0.5-0.224-0.5-0.5S1167.724,515,1168,515 M1168,514
			c-0.827,0-1.5,0.673-1.5,1.5s0.673,1.5,1.5,1.5s1.5-0.673,1.5-1.5S1168.827,514,1168,514L1168,514z"/>
	</g>
	<g>
		<path d="M1164.246,508.284c-0.264,0.258-0.587,0.449-0.943,0.571c2.58,1.549,4.197,3.729,4.197,6.145h1
			C1168.5,512.38,1166.873,510.004,1164.246,508.284z"/>
		<path d="M1144.181,508.998l-0.173-0.865c-2.771,1.732-4.508,4.167-4.508,6.867h1c0-2.341,1.511-4.463,3.95-6.002H1144.181z"/>
	</g>
</g>
<g>
	<g>
		<path fill-rule="evenodd" clip-rule="evenodd" fill="#FFB400" d="M24.498,12.998L18,13l-6.501-7H10l3.266,6.997l-4.267,0.001
			l-1.499-2H6l1,5L24.498,16C25.329,16,26,15.329,26,14.5C26,13.67,25.326,12.998,24.498,12.998z"/>
	</g>
	<g>
		<circle fill="#FFB400" cx="2" cy="23.5" r="0.5"/>
		<path fill="#FFB400" d="M2,22c-0.827,0-1.5,0.673-1.5,1.5S1.173,25,2,25s1.5-0.673,1.5-1.5S2.827,22,2,22L2,22z"/>
	</g>
	<path fill="#FFB400" d="M30,23c0.276,0,0.5,0.224,0.5,0.5S30.276,24,30,24s-0.5-0.224-0.5-0.5S29.724,23,30,23 M30,22
		c-0.827,0-1.5,0.673-1.5,1.5S29.173,25,30,25s1.5-0.673,1.5-1.5S30.827,22,30,22L30,22z"/>
	<g>
		<path fill="#FFB400" d="M26.246,16.284c-0.264,0.258-0.587,0.449-0.943,0.571C27.883,18.404,29.5,20.584,29.5,23h1
			C30.5,20.38,28.873,18.004,26.246,16.284z"/>
		<path fill="#FFB400" d="M6.181,16.998l-0.173-0.865C3.237,17.865,1.5,20.3,1.5,23h1c0-2.341,1.511-4.463,3.95-6.002H6.181z"/>
	</g>
</g>
</svg>
