<?xml version="1.0" encoding="utf-8"?>
<!-- Generator: Adobe Illustrator 16.0.0, SVG Export Plug-In . SVG Version: 6.00 Build 0)  -->
<!DOCTYPE svg PUBLIC "-//W3C//DTD SVG 1.0//EN" "http://www.w3.org/TR/2001/REC-SVG-20010904/DTD/svg10.dtd">
<svg version="1.0" id="Layer_1" xmlns="http://www.w3.org/2000/svg" xmlns:xlink="http://www.w3.org/1999/xlink" x="0px" y="0px"
	 width="114px" height="31px" viewBox="0 0 114 31" enable-background="new 0 0 114 31" xml:space="preserve">
<g>
	<g>
		<g>
			<g>
				<path fill="none" stroke="#1F1F20" d="M113,11.001c0,5.547-4.496,10.042-10.044,10.042h-5.912
					C91.496,21.043,87,16.548,87,11.001l0,0c0-5.548,4.282-10.043,10.044-10.043h6.127C108.504,0.958,113,5.453,113,11.001
					L113,11.001z"/>
			</g>
			<g>
				<path fill="none" stroke="#1F1F20" d="M7.776,26.347c-0.016,2.398-0.934,3.862-3.565,3.862c-1.604,0-3.192-0.717-3.333-2.43
					h0.981c0.219,1.184,1.261,1.604,2.352,1.604c1.806,0,2.585-1.075,2.585-3.037v-1.09H6.765c-0.452,0.981-1.402,1.65-2.554,1.65
					c-2.569,0-3.628-1.838-3.628-4.126c0-2.212,1.308-4.048,3.628-4.048c1.168,0,2.164,0.731,2.554,1.619h0.031v-1.387h0.98V26.347z
					 M6.796,22.89c0-1.572-0.732-3.331-2.585-3.331c-1.869,0-2.647,1.665-2.647,3.331c0,1.62,0.842,3.192,2.647,3.192
					C5.908,26.082,6.796,24.525,6.796,22.89z"/>
				<path fill="none" stroke="#1F1F20" d="M10.112,23.248c0.016,1.433,0.764,3.161,2.647,3.161c1.433,0,2.212-0.841,2.521-2.056
					h0.982c-0.421,1.822-1.479,2.881-3.504,2.881c-2.554,0-3.628-1.962-3.628-4.251c0-2.117,1.074-4.25,3.628-4.25
					c2.585,0,3.612,2.257,3.534,4.515H10.112z M15.313,22.423c-0.046-1.479-0.966-2.864-2.554-2.864c-1.604,0-2.491,1.4-2.647,2.864
					H15.313z"/>
				<path fill="none" stroke="#1F1F20" d="M25.139,22.983c0,2.305-1.339,4.251-3.798,4.251c-2.461,0-3.8-1.946-3.8-4.251
					c0-2.304,1.339-4.25,3.8-4.25C23.8,18.733,25.139,20.68,25.139,22.983z M18.521,22.983c0,1.713,0.935,3.426,2.819,3.426
					c1.883,0,2.817-1.713,2.817-3.426s-0.935-3.425-2.817-3.425C19.456,19.559,18.521,21.271,18.521,22.983z"/>
				<path fill="none" stroke="#1F1F20" d="M33.563,26.347c-0.016,2.398-0.934,3.862-3.565,3.862c-1.604,0-3.192-0.717-3.332-2.43
					h0.98c0.218,1.184,1.261,1.604,2.352,1.604c1.806,0,2.585-1.075,2.585-3.037v-1.09h-0.031c-0.451,0.981-1.401,1.65-2.554,1.65
					c-2.568,0-3.628-1.838-3.628-4.126c0-2.212,1.308-4.048,3.628-4.048c1.168,0,2.165,0.731,2.554,1.619h0.031v-1.387h0.98V26.347z
					 M32.583,22.89c0-1.572-0.732-3.331-2.585-3.331c-1.868,0-2.647,1.665-2.647,3.331c0,1.62,0.841,3.192,2.647,3.192
					C31.695,26.082,32.583,24.525,32.583,22.89z"/>
				<path fill="none" stroke="#1F1F20" d="M35.526,18.966h0.903v1.885h0.03c0.498-1.292,1.588-2.056,3.036-1.993v0.981
					c-1.775-0.095-2.989,1.214-2.989,2.88v4.282h-0.98V18.966z"/>
				<path fill="none" stroke="#1F1F20" d="M40.494,21.427c0.093-1.885,1.415-2.693,3.253-2.693c1.417,0,2.958,0.436,2.958,2.584
					v4.267c0,0.373,0.188,0.592,0.576,0.592c0.109,0,0.234-0.031,0.312-0.062v0.825c-0.217,0.047-0.373,0.062-0.638,0.062
					c-0.997,0-1.152-0.561-1.152-1.401h-0.031c-0.685,1.043-1.386,1.635-2.928,1.635c-1.479,0-2.692-0.731-2.692-2.351
					c0-2.259,2.194-2.336,4.312-2.585c0.812-0.094,1.262-0.203,1.262-1.091c0-1.323-0.949-1.649-2.103-1.649
					c-1.213,0-2.117,0.56-2.148,1.868H40.494z M45.725,22.61h-0.03c-0.125,0.233-0.562,0.311-0.826,0.357
					c-1.666,0.296-3.736,0.28-3.736,1.854c0,0.98,0.871,1.588,1.79,1.588c1.495,0,2.818-0.949,2.803-2.522V22.61z"/>
				<path fill="none" stroke="#1F1F20" d="M48.746,18.966h0.903v1.526h0.031c0.451-1.09,1.572-1.759,2.865-1.759
					c2.444,0,3.611,1.978,3.611,4.25c0,2.273-1.167,4.251-3.611,4.251c-1.199,0-2.367-0.607-2.787-1.759h-0.031v4.499h-0.981V18.966
					z M52.546,19.559c-2.165,0-2.818,1.603-2.818,3.425c0,1.666,0.73,3.426,2.818,3.426c1.868,0,2.631-1.76,2.631-3.426
					S54.414,19.559,52.546,19.559z"/>
				<path fill="none" stroke="#1F1F20" d="M57.513,15.884h0.981v4.469h0.031c0.357-0.966,1.433-1.619,2.569-1.619
					c2.257,0,2.941,1.183,2.941,3.098v5.17h-0.98v-5.014c0-1.386-0.451-2.429-2.04-2.429c-1.557,0-2.49,1.184-2.521,2.755v4.688
					h-0.981V15.884z"/>
				<path fill="none" stroke="#1F1F20" d="M66,15.884h0.98v1.572H66V15.884z M66,18.966h0.98v8.035H66V18.966z"/>
				<path fill="none" stroke="#1F1F20" d="M74.424,21.489c-0.265-1.199-0.997-1.931-2.274-1.931c-1.884,0-2.818,1.712-2.818,3.425
					s0.935,3.426,2.818,3.426c1.215,0,2.211-0.949,2.336-2.289h0.981c-0.265,1.931-1.525,3.114-3.317,3.114
					c-2.46,0-3.799-1.946-3.799-4.251c0-2.304,1.339-4.25,3.799-4.25c1.714,0,3.036,0.918,3.255,2.756H74.424z"/>
				<path fill="none" stroke="#1F1F20" d="M76.916,21.427c0.092-1.885,1.415-2.693,3.254-2.693c1.416,0,2.958,0.436,2.958,2.584
					v4.267c0,0.373,0.187,0.592,0.575,0.592c0.11,0,0.234-0.031,0.312-0.062v0.825c-0.219,0.047-0.374,0.062-0.639,0.062
					c-0.997,0-1.151-0.561-1.151-1.401h-0.032c-0.685,1.043-1.386,1.635-2.927,1.635c-1.479,0-2.694-0.731-2.694-2.351
					c0-2.259,2.195-2.336,4.313-2.585c0.81-0.094,1.262-0.203,1.262-1.091c0-1.323-0.95-1.649-2.103-1.649
					c-1.214,0-2.117,0.56-2.148,1.868H76.916z M82.147,22.61h-0.031c-0.125,0.233-0.562,0.311-0.826,0.357
					c-1.666,0.296-3.736,0.28-3.736,1.854c0,0.98,0.872,1.588,1.79,1.588c1.495,0,2.818-0.949,2.804-2.522V22.61z"/>
			</g>
		</g>
	</g>
	<g>
		<g>
			<g>
				<path fill="#82B600" d="M113,11.001c0,5.547-4.496,10.042-10.044,10.042h-5.912C91.496,21.043,87,16.548,87,11.001l0,0
					c0-5.548,4.282-10.043,10.044-10.043h6.127C108.504,0.958,113,5.453,113,11.001L113,11.001z"/>
				<g>
					<path fill="#FFFFFF" d="M102.374,15.699c-0.66,0.206-1.631,0.323-2.437,0.323c-2.923,0-5.169-2.188-5.169-5.051
						c0-2.878,2.174-4.992,5.124-4.992c0.69,0,1.498,0.087,2.011,0.22c0.427,0.117,0.647,0.221,1.178,0.515l-0.457,0.998
						c-0.235-0.133-0.396-0.206-0.514-0.265c-0.559-0.234-1.321-0.382-2.1-0.382c-1.367,0-2.247,0.367-2.996,1.233
						c-0.602,0.705-0.953,1.631-0.953,2.584c0,2.335,1.791,4.053,4.214,4.053c0.484,0,0.823-0.044,1.601-0.205V11.5h1.205v3.964
						C102.771,15.582,102.535,15.655,102.374,15.699z"/>
				</g>
			</g>
			<g>
				<path fill="#7D7B7C" d="M7.776,26.347c-0.016,2.398-0.934,3.862-3.565,3.862c-1.604,0-3.192-0.717-3.333-2.43h0.981
					c0.219,1.184,1.261,1.604,2.352,1.604c1.806,0,2.585-1.075,2.585-3.037v-1.09H6.765c-0.452,0.981-1.402,1.65-2.554,1.65
					c-2.569,0-3.628-1.838-3.628-4.126c0-2.212,1.308-4.048,3.628-4.048c1.168,0,2.164,0.731,2.554,1.619h0.031v-1.387h0.98V26.347z
					 M6.796,22.89c0-1.572-0.732-3.331-2.585-3.331c-1.869,0-2.647,1.665-2.647,3.331c0,1.62,0.842,3.192,2.647,3.192
					C5.908,26.082,6.796,24.525,6.796,22.89z"/>
				<path fill="#7D7B7C" d="M10.112,23.248c0.016,1.433,0.764,3.161,2.647,3.161c1.433,0,2.212-0.841,2.521-2.056h0.982
					c-0.421,1.822-1.479,2.881-3.504,2.881c-2.554,0-3.628-1.962-3.628-4.251c0-2.117,1.074-4.25,3.628-4.25
					c2.585,0,3.612,2.257,3.534,4.515H10.112z M15.313,22.423c-0.046-1.479-0.966-2.864-2.554-2.864c-1.604,0-2.491,1.4-2.647,2.864
					H15.313z"/>
				<path fill="#7D7B7C" d="M25.139,22.983c0,2.305-1.339,4.251-3.798,4.251c-2.461,0-3.8-1.946-3.8-4.251
					c0-2.304,1.339-4.25,3.8-4.25C23.8,18.733,25.139,20.68,25.139,22.983z M18.521,22.983c0,1.713,0.935,3.426,2.819,3.426
					c1.883,0,2.817-1.713,2.817-3.426s-0.935-3.425-2.817-3.425C19.456,19.559,18.521,21.271,18.521,22.983z"/>
				<path fill="#7D7B7C" d="M33.563,26.347c-0.016,2.398-0.934,3.862-3.565,3.862c-1.604,0-3.192-0.717-3.332-2.43h0.98
					c0.218,1.184,1.261,1.604,2.352,1.604c1.806,0,2.585-1.075,2.585-3.037v-1.09h-0.031c-0.451,0.981-1.401,1.65-2.554,1.65
					c-2.568,0-3.628-1.838-3.628-4.126c0-2.212,1.308-4.048,3.628-4.048c1.168,0,2.165,0.731,2.554,1.619h0.031v-1.387h0.98V26.347z
					 M32.583,22.89c0-1.572-0.732-3.331-2.585-3.331c-1.868,0-2.647,1.665-2.647,3.331c0,1.62,0.841,3.192,2.647,3.192
					C31.695,26.082,32.583,24.525,32.583,22.89z"/>
				<path fill="#7D7B7C" d="M35.526,18.966h0.903v1.885h0.03c0.498-1.292,1.588-2.056,3.036-1.993v0.981
					c-1.775-0.095-2.989,1.214-2.989,2.88v4.282h-0.98V18.966z"/>
				<path fill="#7D7B7C" d="M40.494,21.427c0.093-1.885,1.415-2.693,3.253-2.693c1.417,0,2.958,0.436,2.958,2.584v4.267
					c0,0.373,0.188,0.592,0.576,0.592c0.109,0,0.234-0.031,0.312-0.062v0.825c-0.217,0.047-0.373,0.062-0.638,0.062
					c-0.997,0-1.152-0.561-1.152-1.401h-0.031c-0.685,1.043-1.386,1.635-2.928,1.635c-1.479,0-2.692-0.731-2.692-2.351
					c0-2.259,2.194-2.336,4.312-2.585c0.812-0.094,1.262-0.203,1.262-1.091c0-1.323-0.949-1.649-2.103-1.649
					c-1.213,0-2.117,0.56-2.148,1.868H40.494z M45.725,22.61h-0.03c-0.125,0.233-0.562,0.311-0.826,0.357
					c-1.666,0.296-3.736,0.28-3.736,1.854c0,0.98,0.871,1.588,1.79,1.588c1.495,0,2.818-0.949,2.803-2.522V22.61z"/>
				<path fill="#7D7B7C" d="M48.746,18.966h0.903v1.526h0.031c0.451-1.09,1.572-1.759,2.865-1.759c2.444,0,3.611,1.978,3.611,4.25
					c0,2.273-1.167,4.251-3.611,4.251c-1.199,0-2.367-0.607-2.787-1.759h-0.031v4.499h-0.981V18.966z M52.546,19.559
					c-2.165,0-2.818,1.603-2.818,3.425c0,1.666,0.73,3.426,2.818,3.426c1.868,0,2.631-1.76,2.631-3.426S54.414,19.559,52.546,19.559
					z"/>
				<path fill="#7D7B7C" d="M57.513,15.884h0.981v4.469h0.031c0.357-0.966,1.433-1.619,2.569-1.619c2.257,0,2.941,1.183,2.941,3.098
					v5.17h-0.98v-5.014c0-1.386-0.451-2.429-2.04-2.429c-1.557,0-2.49,1.184-2.521,2.755v4.688h-0.981V15.884z"/>
				<path fill="#7D7B7C" d="M66,15.884h0.98v1.572H66V15.884z M66,18.966h0.98v8.035H66V18.966z"/>
				<path fill="#7D7B7C" d="M74.424,21.489c-0.265-1.199-0.997-1.931-2.274-1.931c-1.884,0-2.818,1.712-2.818,3.425
					s0.935,3.426,2.818,3.426c1.215,0,2.211-0.949,2.336-2.289h0.981c-0.265,1.931-1.525,3.114-3.317,3.114
					c-2.46,0-3.799-1.946-3.799-4.251c0-2.304,1.339-4.25,3.799-4.25c1.714,0,3.036,0.918,3.255,2.756H74.424z"/>
				<path fill="#7D7B7C" d="M76.916,21.427c0.092-1.885,1.415-2.693,3.254-2.693c1.416,0,2.958,0.436,2.958,2.584v4.267
					c0,0.373,0.187,0.592,0.575,0.592c0.11,0,0.234-0.031,0.312-0.062v0.825c-0.219,0.047-0.374,0.062-0.639,0.062
					c-0.997,0-1.151-0.561-1.151-1.401h-0.032c-0.685,1.043-1.386,1.635-2.927,1.635c-1.479,0-2.694-0.731-2.694-2.351
					c0-2.259,2.195-2.336,4.313-2.585c0.81-0.094,1.262-0.203,1.262-1.091c0-1.323-0.95-1.649-2.103-1.649
					c-1.214,0-2.117,0.56-2.148,1.868H76.916z M82.147,22.61h-0.031c-0.125,0.233-0.562,0.311-0.826,0.357
					c-1.666,0.296-3.736,0.28-3.736,1.854c0,0.98,0.872,1.588,1.79,1.588c1.495,0,2.818-0.949,2.804-2.522V22.61z"/>
			</g>
		</g>
	</g>
</g>
</svg>
