<?xml version="1.0" encoding="utf-8"?>
<!-- Generator: Adobe Illustrator 16.0.0, SVG Export Plug-In . SVG Version: 6.00 Build 0)  -->
<!DOCTYPE svg PUBLIC "-//W3C//DTD SVG 1.1//EN" "http://www.w3.org/Graphics/SVG/1.1/DTD/svg11.dtd">
<svg version="1.1" xmlns="http://www.w3.org/2000/svg" xmlns:xlink="http://www.w3.org/1999/xlink" x="0px" y="0px" width="28px"
	 height="44px" viewBox="0 -0.5 28 44" enable-background="new 0 -0.5 28 44" xml:space="preserve">
<g id="Layer_1">
	<g display="none" opacity="0.25">
		<path display="inline" d="M16.936,21.5h-5.872C5.242,21.5,0.505,16.79,0.505,11c0-5.789,4.736-10.5,10.559-10.5h5.872
			c5.822,0,10.56,4.711,10.56,10.5C27.494,16.79,22.758,21.5,16.936,21.5z"/>
	</g>
	<g>
		<g>
			<path fill="#82B600" d="M16.936,0.5h-5.872c-5.556,0-10.059,4.477-10.059,10c0,5.523,4.503,10,10.059,10h5.872
				c5.558,0,10.06-4.477,10.06-10C26.994,4.977,22.492,0.5,16.936,0.5z"/>
		</g>
	</g>
	<path fill="#FFFFFF" d="M16.486,15.178c-0.662,0.205-1.635,0.322-2.441,0.322c-2.928,0-5.177-2.178-5.177-5.029
		C8.869,7.605,11.045,5.5,14,5.5c0.691,0,1.5,0.088,2.014,0.22c0.428,0.116,0.648,0.219,1.18,0.512l-0.457,0.994
		C16.5,7.093,16.34,7.02,16.221,6.962c-0.559-0.234-1.322-0.381-2.103-0.381c-1.368,0-2.249,0.365-3,1.229
		c-0.602,0.701-0.955,1.623-0.955,2.573c0,2.324,1.794,4.035,4.221,4.035c0.485,0,0.824-0.043,1.603-0.203v-3.217h1.207v3.947
		C16.883,15.061,16.646,15.135,16.486,15.178z"/>
</g>
<g id="Layer_2">
	<g>
		<g>
			<g>
				<path fill="#808080" d="M16.936,22.5h-5.872c-5.556,0-10.059,4.477-10.059,10s4.503,10,10.059,10h5.872
					c5.558,0,10.06-4.477,10.06-10C26.994,26.977,22.492,22.5,16.936,22.5z"/>
			</g>
		</g>
		<path fill="#FFFFFF" d="M16.486,37.178c-0.662,0.205-1.635,0.322-2.441,0.322c-2.928,0-5.177-2.178-5.177-5.029
			C8.869,29.605,11.045,27.5,14,27.5c0.691,0,1.5,0.088,2.014,0.22c0.428,0.116,0.648,0.22,1.18,0.513l-0.457,0.994
			c-0.236-0.134-0.396-0.207-0.516-0.265c-0.559-0.233-1.322-0.381-2.103-0.381c-1.368,0-2.249,0.364-3,1.229
			c-0.602,0.7-0.955,1.623-0.955,2.572c0,2.324,1.794,4.035,4.221,4.035c0.485,0,0.824-0.043,1.603-0.203v-3.217h1.207v3.947
			C16.883,37.061,16.646,37.135,16.486,37.178z"/>
	</g>
</g>
</svg>
